<svg version="1.0" xmlns="http://www.w3.org/2000/svg" width="16" height="16" viewBox="0 0 512 512"><path d="M248.5 11c-2.2 1.1-58 33.9-124 72.8C28.4 140.4 4.1 155.2 2.3 157.9c-1.7 2.4-2.3 4.8-2.3 8.5 0 8.9 1.5 10.2 31.9 28 14.9 8.7 27.3 16.2 27.6 16.5.2.4-11.7 7.7-26.4 16.4-14.7 8.6-28 17.1-29.6 18.7-2.7 2.9-3 3.8-3 10s.3 7.1 3 10c1.6 1.6 14.9 10.1 29.6 18.7 14.7 8.7 26.6 16 26.4 16.4-.3.3-12.7 7.8-27.6 16.5C1.5 335.4 0 336.7 0 345.6c0 3.7.6 6.1 2.3 8.5 1.8 2.7 26.7 17.8 125.2 75.9 122.7 72.3 123 72.5 128.5 72.5s5.8-.2 128.5-72.5c98.5-58.1 123.4-73.2 125.2-75.9 1.7-2.4 2.3-4.8 2.3-8.5 0-8.9-1.5-10.2-31.9-28-14.9-8.7-27.3-16.2-27.6-16.5-.2-.4 11.7-7.7 26.4-16.4 14.7-8.6 28-17.1 29.6-18.7 2.7-2.9 3-3.8 3-10s-.3-7.1-3-10c-1.6-1.6-14.9-10.1-29.6-18.7-14.7-8.7-26.6-16-26.4-16.4.3-.3 12.7-7.8 27.6-16.5 30.4-17.8 31.9-19.1 31.9-28 0-3.7-.6-6.1-2.3-8.5-1.8-2.7-26.6-17.8-125.2-75.8C249.9 2.7 257.1 6.5 248.5 11zm113.2 93.4 105 62-104.9 61.8C304.1 262.2 256.5 290 256 290s-48.1-27.8-105.8-61.8L45.3 166.4l105.1-62.1c57.8-34.1 105.4-62 105.7-61.9.3 0 47.8 28 105.6 62zM169.1 275.2c43.1 25.4 80.3 46.8 82.7 47.6 3.6 1.2 4.8 1.2 8.5 0 2.3-.8 39.4-22.2 82.5-47.5l78.3-46.2 22.4 13.2c12.4 7.3 22.5 13.4 22.5 13.7 0 .3-47.3 28.3-105 62.3l-105 61.9-105-61.9c-57.7-34-105-62-105-62.3 0-.3 10-6.4 22.3-13.7 12.2-7.2 22.3-13.2 22.3-13.2.1-.1 35.4 20.7 78.5 46.1zm2.1 91 78.3 46.3h13l78.4-46.4c43.1-25.4 78.9-46.5 79.5-46.7.6-.2 11.3 5.6 23.7 12.9l22.7 13.3-105.4 62.1L256 469.8l-105.4-62.1-105.4-62.1 22.7-13.3c12.4-7.3 23.1-13.1 23.8-12.9.6.3 36.4 21.3 79.5 46.8z"/></svg>