<svg version="1.0" xmlns="http://www.w3.org/2000/svg" width="16" height="16" viewBox="0 0 512 512"><path d="M61 33.6c-3 .8-7.3 2.6-9.6 3.9-6.1 3.6-13.9 12.6-16.6 19.3l-2.3 5.7v179l2.3 5.7c2.7 6.7 10.3 15.5 16.7 19.2 9.6 5.7 10 5.7 87.1 5.4l70.9-.3 5.7-2.3c6.7-2.7 15.5-10.3 19.2-16.6 5.7-9.7 5.6-8.7 5.6-100.6 0-91.9.1-90.9-5.6-100.6-3.7-6.3-12.5-13.9-19.2-16.6l-5.7-2.3-71.5-.2c-60.6-.2-72.3 0-77 1.3zm144.5 32.9 2.5 2.4v166.2l-2.5 2.4-2.4 2.5H68.9l-2.4-2.5-2.5-2.4V68.9l2.5-2.4 2.4-2.5h134.2l2.4 2.5zM301 33.6c-3 .8-7.3 2.6-9.6 3.9-6.1 3.6-13.9 12.6-16.6 19.3l-2.3 5.7v115l2.3 5.7c2.7 6.7 10.3 15.5 16.7 19.2 9.6 5.7 10 5.7 87.1 5.4l70.9-.3 5.7-2.3c6.7-2.7 15.5-10.3 19.2-16.6 5.4-9.3 5.6-11.6 5.6-68.6 0-57-.2-59.3-5.6-68.6-3.7-6.3-12.5-13.9-19.2-16.6l-5.7-2.3-71.5-.2c-60.6-.2-72.3 0-77 1.3zm144.5 32.9 2.5 2.4v102.2l-2.5 2.4-2.4 2.5H308.9l-2.4-2.5-2.5-2.4V68.9l2.5-2.4 2.4-2.5h134.2l2.4 2.5zM301 241.6c-3 .8-7.3 2.6-9.6 3.9-6.1 3.6-13.9 12.6-16.6 19.3l-2.3 5.7v179l2.3 5.7c2.7 6.7 10.3 15.5 16.7 19.2 9.6 5.7 10 5.7 87.1 5.4l70.9-.3 5.7-2.3c6.7-2.7 15.5-10.3 19.2-16.6 5.7-9.7 5.6-8.7 5.6-100.6 0-91.9.1-90.9-5.6-100.6-3.7-6.3-12.5-13.9-19.2-16.6l-5.7-2.3-71.5-.2c-60.6-.2-72.3 0-77 1.3zm144.5 32.9 2.5 2.4v166.2l-2.5 2.4-2.4 2.5H308.9l-2.4-2.5-2.5-2.4V276.9l2.5-2.4 2.4-2.5h134.2l2.4 2.5zM61 305.6c-3 .8-7.3 2.6-9.6 3.9-6.1 3.6-13.9 12.6-16.6 19.3l-2.3 5.7v115l2.3 5.7c2.7 6.7 10.3 15.5 16.7 19.2 9.6 5.7 10 5.7 87.1 5.4l70.9-.3 5.7-2.3c6.7-2.7 15.5-10.3 19.2-16.6 5.4-9.3 5.6-11.6 5.6-68.6 0-57-.2-59.3-5.6-68.6-3.7-6.3-12.5-13.9-19.2-16.6l-5.7-2.3-71.5-.2c-60.6-.2-72.3 0-77 1.3zm144.5 32.9 2.5 2.4v102.2l-2.5 2.4-2.4 2.5H68.9l-2.4-2.5-2.5-2.4V340.9l2.5-2.4 2.4-2.5h134.2l2.4 2.5z"/></svg>