<svg version="1.0" xmlns="http://www.w3.org/2000/svg" width="16" height="16" viewBox="0 0 512 512"><path d="M242.4 94c-24.8 4.5-46.5 22.3-56.1 46-8.6 21.5-6.5 46.2 5.8 66.6 4.4 7.2 12.9 16.6 18.6 20.5 2.5 1.7 4.1 3.4 3.6 3.8-.4.4-3 1.6-5.8 2.6-8.1 2.9-22.2 10.5-30.2 16.2-4.1 2.9-7.7 5.3-8.1 5.3-.4 0-2.3-1.3-4.2-2.8-4.9-4-16.2-10.7-22.6-13.3l-5.5-2.3 6-6c13.5-13.7 19.2-30.5 16.9-49.6-2.7-22.4-17.7-40.6-39.8-48.2-9.2-3.2-26.5-3.2-36.5-.1-17 5.4-31.1 19.1-37.7 36.9-1.9 5-2.3 7.9-2.3 19.4.1 12.5.3 14 2.9 20.5 3.8 9.3 8.6 16.4 15 22.3l5.3 4.8-5.6 2.2C52 242.7 40 250.9 30.4 260.4 10.9 279.7 1.3 301.2.3 327.7L-.3 341h123.8l-.3 14.9c-.2 8.7.1 17.2.8 20.4 4.1 20.1 22.4 38 42.4 41.6 4 .7 34.3 1.1 90 1.1 92.3 0 90.6.1 102.7-6.1 8.5-4.3 19.7-15.6 23.7-24 4.5-9.5 5.4-15.4 5-32.7l-.3-15.2H512v-9.8c0-17.9-5.3-36.2-15.2-52.2-10-16.4-31.9-35-47.9-40.7l-4.5-1.6 6.7-6.7c11.8-11.8 17.5-27.1 16.6-44-1.1-20.4-10.1-36.2-26.8-47-8.8-5.7-16.7-8.1-28.4-8.7-18.3-.9-32.4 4.5-45 17.1-11.5 11.6-16.9 25-16.8 41.6.1 16.1 5.1 28.6 16.4 40.5l6.6 6.9-9.6 4.6c-5.3 2.6-12.6 6.9-16.2 9.7l-6.7 5.1-8.3-6c-8.6-6.2-21.5-13.1-30.4-16.3-2.7-1-5.4-2.2-5.8-2.6-.5-.4 1.1-2.1 3.6-3.8 2.5-1.7 6.9-5.7 9.8-9 14-15.4 20.8-34.7 19.6-55.1-1.9-31.5-22.5-57.5-53.2-67-8-2.4-25.7-3.5-34.1-2zm24.1 17.5c11 2.3 20.8 7.7 29 15.9 11.6 11.7 16.8 24 16.8 40.1s-5.2 28.3-17 40.1c-23.4 23.5-59 22.8-81.5-1.5-7.8-8.4-11.2-14.6-13.8-24.7-2.5-9.8-2.5-18 0-27.8 5.8-22.6 22.5-37.8 47.5-43 4.3-.9 12.3-.5 19 .9zm-153.4 37.1c8.2 2.5 12.4 4.9 18.3 10.8 16.4 16.5 16.5 41.8.2 58.2-26.2 26.2-70.6 7.9-70.6-29.1 0-27 26.7-47.4 52.1-39.9zm308.1.4c20.9 6.4 33.6 28.5 28.4 49-8.3 32.2-46.9 42.7-70.2 19.2-7.7-7.9-11.4-17.1-11.4-28.8 0-27.5 26.9-47.5 53.2-39.4zm-151.7 94.1c24.9 3.1 47.2 13.9 66.2 32.2 23.6 22.8 36.3 54.1 35.1 86.7-.4 10.8-.7 12.3-3.6 18.3-4 8.1-12 15.7-20 18.9l-5.7 2.3-82.3.3c-53.3.2-84.3-.1-87.9-.8-12.7-2.3-22.2-9.5-27.7-21-3.1-6.5-3.1-6.6-3-23 0-18.7 1.6-27.4 8-42.8 19.9-48.3 69.4-77.4 120.9-71.1zM121.8 250c10 2.4 21 7.3 29.2 13.1 3.3 2.3 6 4.4 6 4.6 0 .3-2 2.8-4.4 5.6-9.5 11.3-19 28.7-23.7 43.4l-2.3 7.3H16.9l.6-3.8c7-41.8 42.3-72 84.5-72.1 8.2-.1 13.9.5 19.8 1.9zm305-.4c16.7 3.4 31.9 12 44.3 25.1 11.9 12.5 19.9 28 22.7 44l.9 5.3H384.1l-1.6-5.8c-3.8-13.1-13.4-31-23.6-43.9l-4.9-6.1 3.1-2.6c7.6-6.5 22.7-13.5 34.1-16 8.8-1.9 26.3-1.9 35.6 0z"/></svg>