<svg version="1.0" xmlns="http://www.w3.org/2000/svg" width="16" height="16" viewBox="0 0 512 512"><path d="M240.2 1c-31.8 3.1-58.8 10.8-87.7 25C101.9 50.9 63.1 89.7 38 140.5c-18.1 36.8-26.3 72.4-26.2 115 0 29.4 3.6 55.3 11.1 79.7 24.3 78.8 81.4 137.6 158.4 163.3 28.6 9.5 51.3 12.9 85.7 12.9 25.6 0 37.2-1.1 58-5.6 41.9-9 85.3-31.8 119.5-62.8 8.7-7.8 29.4-29.8 29.5-31.2 0-.7-18.1-16.8-19-16.8-.3 0-4.2 4.1-8.5 9.1-32.1 36.5-83.3 66.7-129.3 76.3-19.4 4-29.7 5-50.7 5-29.6 0-51.1-3.4-76.2-11.9-31.7-10.8-58.8-27.2-82.2-50-19.3-18.8-32.9-37.3-44.4-60.7-11.3-22.9-18.4-45.7-22.3-71.3-2.6-16.8-2.6-54.4-.1-70C51.4 159.6 83.6 105.7 132 69.6c29.4-22 62.8-35.8 99.7-41.3 15.5-2.3 47.7-2.2 65.1.1 42 5.7 79.5 21.3 109.3 45.7 31.2 25.4 54.6 63.1 62.8 101 5.9 27.7 5.2 64.4-2 94.9-14 59.8-50.6 94.6-100.3 95.2-20.9.3-33.1-6.2-36.7-19.4-1.8-6.9-1.2-21.8 1.5-35 1.8-8.8 43.4-155.2 51.2-180.1.5-1.6-.6-1.7-13.3-1.7h-13.9l-4.3 15.7c-2.4 8.7-4.7 16.2-5.1 16.6-.4.5-1.5-1.1-2.5-3.5-5.2-13.1-17.9-26.5-31.2-33-12.4-6-24.4-8.1-41.3-7.5-16.7.7-27.1 3.1-40.5 9.6-51.3 24.7-90.4 91.9-94.3 162-2 34.9 5.1 59.5 22.7 78.3 13 13.9 27.6 21.3 47.6 23.9 31.8 4.2 65.2-9.6 89.5-36.7l6.4-7.2 2.1 7.2c1.1 4 3.3 9.3 4.8 11.8 5.8 10 20 19.6 34.7 23.5 7.9 2.1 30.6 2.3 42 .4 28.9-4.9 55.8-20.3 73.9-42.4 24.1-29.6 37.1-67.6 40.1-117 3.7-62.3-15.4-116.6-56-159.1-36.1-37.8-84.3-61.4-141-69.1C289.2.6 253.1-.2 240.2 1zm54.2 144.9c26.6 9.3 39.1 38.8 32.7 77.5-7.4 44.7-24.7 83.9-49.6 112.6-18.8 21.5-34 29.3-57 29.3-24.6 0-40.2-8.9-49.7-28.4-5.7-11.5-7.3-19.7-7.2-38.4 0-36.6 12.5-76.8 33.5-108.3 7.5-11.2 27.5-30.6 37.1-36 8.9-5 19.3-8.9 27.6-10.2 9.1-1.4 25.8-.4 32.6 1.9z"/></svg>