<svg version="1.0" xmlns="http://www.w3.org/2000/svg" width="16" height="16" viewBox="0 0 512 512"><path d="M198.9 24c-4.1 1.2-7.7 3.9-9.8 7.4-1.4 2.3-30.1 105.3-30.1 108 0 .3-22.9.7-50.9.8-49.9.3-51 .3-53.8 2.4-5.1 3.8-7.3 8.1-7.3 14.4 0 8.6 5.1 15.1 13.6 17 2.1.5 23 1 46.3 1h42.3l-.5 2.1c-.3 1.1-10.1 37.6-21.9 81L105.5 337H62c-25.8 0-45.3.5-47.9 1.1-6 1.3-10 4.4-12.2 9.3-3.8 8.4-1.1 17.7 6.5 22.1l4.3 2.5h41.7c39.3 0 41.7.1 41.2 1.7-4.4 14.4-25.6 95.4-25.6 97.9 0 7.4 5 13.9 12.5 16.4 7 2.3 16.4-1.5 19.8-8.1 1.3-2.5 29.7-105.3 29.7-107.5 0-.2 41.7-.4 92.6-.4 87.7 0 92.5.1 92 1.7-.3 1-6.2 22.9-13.1 48.8-13.9 51.3-14.1 52.4-9.1 59 3.6 4.7 8.1 6.9 14.1 6.9s11.4-2.9 14.3-7.7c1.5-2.4 30.2-105.3 30.2-108.1 0-.3 22.9-.7 50.9-.8 49.9-.3 51-.3 53.8-2.4 5.1-3.8 7.3-8.1 7.3-14.4 0-8.9-5.4-15.4-14.1-17.1-2.4-.4-23.2-.8-46.3-.9h-41.8l.5-2.1c.3-1.1 10.1-37.6 21.9-81l21.3-78.9h44c45.6 0 49.3-.3 54.9-4.3 3.4-2.4 6.5-8.9 6.6-13.6 0-5.5-3.6-11.8-8.4-14.6l-4.3-2.5h-41.7c-39.3 0-41.7-.1-41.2-1.8 4.4-14.3 25.6-95.3 25.6-97.8 0-7.6-5.4-14.3-13.1-16.4-7.3-2-15.8 1.6-19.2 8.1-1.3 2.5-29.7 105.3-29.7 107.5 0 .2-41.7.4-92.6.4-87.7 0-92.5-.1-92-1.8 5.1-17.1 25.6-95.7 25.6-98 0-3.8-2.8-9.8-5.8-12.5-2.4-2.2-8.7-4.6-11.7-4.6-1.1.1-3.2.4-4.6.9zm170.8 153.2c-.4 1.3-10.2 37.7-21.9 81L326.6 337H141.8l.5-2.3c.3-1.2 10.2-37.6 21.9-81l21.2-78.7h184.8l-.5 2.2z"/></svg>