<svg version="1.0" xmlns="http://www.w3.org/2000/svg" width="16" height="16" viewBox="0 0 512 512"><path d="M368.5 1.5c-16.2 2.6-35.8 9.7-49.9 18.2-16.1 9.6-25.3 17.9-70.2 62.7-44.9 44.9-53.1 54.1-62.8 70.3-7.4 12.5-14 29.3-17.2 44.5-2.6 11.7-2.5 37.2 0 48.8 5.3 24.3 17.1 45.7 35 63.5 10 9.9 25.3 20.8 31.7 22.5 12.9 3.5 26.3-8.5 24.5-21.7-.9-6.7-4.5-11.6-12.8-17-34.8-22.9-48.3-60-36.1-98.8 3.1-9.9 6.9-17.5 14.1-28.5 4.4-6.8 14.3-17.3 48.6-51.8C297.1 90.3 320 68 324.2 64.6c20.7-16.6 46.2-25.7 68.3-24.2 20.4 1.3 36.5 8.3 51.7 22.5 16.1 15 24.4 31 27 51.9 2 15.6-1.8 35.4-9.8 51.4-7.4 14.8-13.3 21.8-47 55.8-29.5 29.8-33.3 34-34.4 38-4.3 15.9 9.1 29.3 25 25 3.9-1 7.4-4.1 27.9-24.3 42.6-42.2 56.3-58.8 65.9-79.7 23.6-51.1 14.6-105.7-23.7-144.1-17.2-17.1-38.2-28.8-61.1-34-11.6-2.6-33.7-3.3-45.5-1.4z"/><path d="M269.5 179.5c-.5.2-2.2.6-3.8.9-4.1.9-10.3 7.1-12.3 12.2-2.1 5.6-1.3 12.4 2.1 17.6 1.4 2.1 6 6 10.8 9.2 4.6 3 11.7 9.1 15.9 13.4 25.3 26.5 30.6 62.5 14.4 96.8-8.5 17.8-11.9 21.8-61.5 71.5-48.5 48.5-52.9 52.4-69.6 60.7-14 7-32.9 10.9-46.9 9.8-19.9-1.5-36-8.6-50.8-22.5-16.1-15-24.4-31-27-51.9-2-15.5 1.7-35.1 9.4-50.7 7.7-15.5 13.3-22.1 47.4-56.5 29.5-29.8 33.3-34 34.4-38 2.4-9-.8-17.8-8.3-22.8-5.5-3.6-15.4-3.8-20.8-.5-6.1 3.8-64.8 63.9-72.5 74.3-14.9 20.1-23.2 37.9-28 60.2-2.5 11.6-2.5 37.1 0 48.8 8 37.2 32.9 69.5 67 86.7 18.4 9.3 33.7 12.8 55.1 12.8 28.3-.1 50.9-7.2 76-23.9 14.1-9.4 28.6-22.8 71.5-66.2 35.9-36.2 41.9-43 51.5-57.7 34.6-53.3 28.6-117.9-14.9-161.2-15.4-15.3-32.3-25.3-39.1-23z"/></svg>