<svg version="1.0" xmlns="http://www.w3.org/2000/svg" width="16" height="16" viewBox="0 0 512 512"><path d="M83.8 135.3c-11.9 3.4-19.7 15-18.5 27.7.8 9.2 5.9 16.9 14.2 21.3 5.7 3.1 18.3 3.1 24.1 0 8.3-4.4 14.4-14.5 14.4-23.8 0-5.2-2.7-12.8-6.1-16.8-6.2-7.5-18.3-11.1-28.1-8.4zM171.1 145.7c-4.3 2.1-7.9 7.7-8.7 13.3-.4 3.5 0 5.5 1.8 9 2.9 5.6 7.4 8.7 14.1 9.5 2.9.3 65.5.5 139.3.3l134-.3 4.1-2.7c10.2-6.7 9.9-21.5-.6-28.5l-3.4-2.3H313.1c-126.8 0-138.9.2-142 1.7zM81.2 231.5c-5.5 2.4-9.8 6.3-12.8 11.7-2.5 4.5-2.9 6.4-2.9 12.8s.4 8.3 2.9 12.8c5 9 12.4 13.2 23.3 13.2 10.8-.1 18.5-4.7 23.6-14.4 3.1-5.8 3.1-17.4 0-23.2-2.9-5.5-7.8-10.3-12.8-12.5-4.9-2.3-16.5-2.5-21.3-.4zM172.5 240.4c-4.5 1.9-9.2 7.8-10 12.4-1.3 7.9 3.4 16.4 10.8 19.1 2 .8 45.6 1.1 139.6 1.1h136.7l4.4-2.3c6.3-3.1 9-7.6 9-14.7s-2.7-11.6-9-14.8l-4.4-2.2H312.5c-111 .1-137.6.3-140 1.4zM84 325.9C73.2 329.4 66.3 338 65.3 349c-.7 7.2 1.5 14.3 6.2 19.7 10.2 11.9 30.4 11.7 40.4-.4 3.4-4 6.1-11.6 6.1-16.8 0-9.4-6.2-19.5-14.4-23.7-4.4-2.3-15.3-3.3-19.6-1.9zM175.1 335c-4.9 1.2-8.3 4-10.9 9.1-4.1 7.8-1 17.9 6.9 21.9 3.7 2 6.5 2 142.2 2h138.4l3.4-2.3c5.3-3.5 7.9-8.2 7.9-13.9 0-6.6-2.4-11.4-7.3-14.6l-4.1-2.7-136.5-.2c-75.1 0-138.1.2-140 .7z"/></svg>