<svg version="1.0" xmlns="http://www.w3.org/2000/svg" width="16" height="16" viewBox="0 0 512 512"><path d="M227.5 2c-51.5 9.1-93.2 37.4-120.8 82-20 32.3-28.8 75.8-22.7 111.5 7.2 41.8 34.6 103.5 83.4 187.7 32.6 56.3 77 125.3 82 127.6 3.4 1.5 9.8 1.5 13.2 0 5.1-2.4 50.7-73.4 83.6-130.3 47.8-82.6 74.7-143.6 81.8-185 6.1-35.7-2.7-79.2-22.7-111.5-28.1-45.4-71.1-74.1-123.5-82.4-13.5-2.2-41-2-54.3.4zm51 26.5c47.6 7.7 88.1 37.6 109.9 81.3 8.5 17 14.5 42.3 14.6 61.3.1 38.2-25.9 101.2-80.6 196C298.5 408.6 258.1 473 256 473c-1.2 0-23.7-34.8-43.7-67.5-50.2-82.4-84.9-152.4-97.2-196-7.5-26.9-8-46.3-1.6-71.5 14.2-56.5 61.2-99.7 119-109.4 10.9-1.9 34.9-1.9 46-.1z"/><path d="M242.5 76.7c-9.1 1.4-20.2 5-29 9.3-30.6 14.9-50.3 43.5-53.7 77.8-1.8 19.4 1.9 37.6 11.2 54.9 36.3 67.4 133.7 67.4 170 0 9.3-17.3 13-35.5 11.2-54.9-3.4-34.3-23.1-62.9-53.7-77.8-14-6.8-23.9-9.2-40-9.5-7.1-.2-14.3-.1-16 .2zm33.1 29.1c17.9 5.7 34.3 19.3 42.2 35.2 5.6 11.4 7.6 19.3 7.6 31.5.1 12.3-1.3 18.4-6.9 30-7.2 14.9-17.7 25.6-32 32.5-10.4 5.1-18.7 7-30.5 7s-20.1-1.9-30.5-7c-14.3-6.9-24.8-17.6-32-32.5-5.6-11.6-7-17.7-6.9-30 .1-19.4 6.5-34.6 20.4-48.5 11.2-11.3 20.1-16 38.5-20.4 4.6-1.1 24.2.3 30.1 2.2z"/></svg>