<svg version="1.0" xmlns="http://www.w3.org/2000/svg" width="16" height="16" viewBox="0 0 512 512"><path d="M81.1 1.6c-8 2.1-14.7 6.1-22.4 13.3-7.8 7.4-13.8 18.3-15.6 28.5-1.5 8.3-1.5 416.9 0 425.2 1.8 10.2 7.8 21.1 15.6 28.5 3.8 3.5 9.1 7.6 11.9 9.1 11.3 6.1.9 5.8 185.4 5.8 184.4 0 174 .3 185.4-5.8 2.8-1.5 8.4-5.9 12.4-9.8 8.1-8.1 13.2-17.4 15.1-27.8 1.5-8.3 1.5-416.7 0-425.2-1.8-10.2-7.8-21.1-15.6-28.5-7.8-7.3-14.4-11.2-22.8-13.4-8.7-2.2-341-2.2-349.4.1zm348.5 23.6c6.7 3.5 13.8 11.5 16.1 18.1 1.7 5 1.8 14.6 1.8 212.7s-.1 207.7-1.8 212.7c-2.3 6.6-9.4 14.6-16.1 18.1l-5.1 2.7h-337l-5.1-2.7c-6.7-3.5-13.8-11.5-16.1-18.1-1.7-5-1.8-14.6-1.8-212.7s.1-207.7 1.8-212.7c3.1-8.8 12.3-17.5 21.7-20.4 1.4-.4 77.6-.7 169.5-.6l167 .2 5.1 2.7z"/><path d="M111.8 171.6c-4.9 2.6-5.8 5.9-5.8 20.4 0 14.7.9 17.9 6.2 20.6 4.1 2.1 9.3 1.2 13-2.2 2.6-2.6 2.8-3.3 2.8-10.6V192h42v106h-6c-9.6 0-15 3.9-15 10.8 0 4 2.3 8.8 4.9 10.2 1.2.6 12 1 27.8 1h25.9l2.8-2.8c3.4-3.7 4.3-8.9 2.2-13-2.3-4.4-6.3-6.2-14.1-6.2H192V192h42v6.5c0 7.8 1.8 11.8 6.2 14.1 4.1 2.1 9.3 1.2 13-2.2l2.8-2.8v-31.2l-3.1-3-3-2.9-67.7-.2c-58.5-.2-68.1 0-70.4 1.3zM303.4 171.9c-6.1 3.7-6.9 11.9-1.7 17.3l2.7 2.8h95.2l2.8-2.8c3.4-3.7 4.3-8.9 2.2-13-3.2-6.2-2.9-6.2-52.8-6.2-42.6 0-45.5.1-48.4 1.9zM303.4 235.9c-6.1 3.7-6.9 11.9-1.7 17.3l2.7 2.8h95.2l2.8-2.8c3.4-3.7 4.3-8.9 2.2-13-3.2-6.2-2.9-6.2-52.8-6.2-42.6 0-45.5.1-48.4 1.9zM303.4 299.9c-6.1 3.7-6.9 11.9-1.7 17.3l2.7 2.8h95.2l2.8-2.8c3.4-3.7 4.3-8.9 2.2-13-3.2-6.2-2.9-6.2-52.8-6.2-42.6 0-45.5.1-48.4 1.9zM111.4 363.9c-6.1 3.7-6.9 11.9-1.7 17.3l2.7 2.8h287.2l2.8-2.8c3.4-3.7 4.3-8.9 2.2-13-3.4-6.6 6.9-6.2-148.8-6.2-136.5 0-141.4.1-144.4 1.9zM111.4 427.9c-6.1 3.7-6.9 11.9-1.7 17.3l2.7 2.8h287.2l2.8-2.8c3.4-3.7 4.3-8.9 2.2-13-3.4-6.6 6.9-6.2-148.8-6.2-136.5 0-141.4.1-144.4 1.9z"/></svg>