<svg version="1.0" xmlns="http://www.w3.org/2000/svg" width="16" height="16" viewBox="0 0 512 512"><path d="M249.1 1.7c-2.2 1.1-4 3.1-5.1 5.7-1 2.3-13.8 43.1-28.6 90.8L188.7 185H7.8l-3.9 3.9c-3.5 3.4-3.9 4.4-3.9 8.7 0 2.9.7 6 1.8 7.7.9 1.5 33.9 27.3 73.2 57.3 39.3 30 71.6 55.1 71.8 55.7.1.7-11.9 40.6-26.8 88.7-15.5 49.9-27.1 89.3-27.2 91.7-.3 9.4 9.7 15.9 18.4 12 1.4-.7 34.4-25.5 73.3-55.2 38.8-29.7 71-54 71.5-54s32.7 24.3 71.5 54c38.9 29.7 71.9 54.5 73.3 55.2 4 1.8 8.3 1.5 11.9-.7 4.5-2.7 6.6-6.4 6.5-11.3-.1-2.4-11.7-41.8-27.2-91.7-14.9-48.1-26.9-88-26.8-88.7.2-.6 32.5-25.7 71.8-55.7 39.3-30 72.3-55.8 73.2-57.3 1.1-1.7 1.8-4.8 1.8-7.7 0-4.3-.4-5.3-3.9-8.7l-3.9-3.9H323.3l-26.7-86.8C281.8 50.5 269 9.7 268 7.4c-2.9-6.8-11.5-9.3-18.9-5.7zm29.3 128.6c12.1 39.1 22.6 72.5 23.3 74 .8 1.5 2.8 3.7 4.6 4.7 3.1 1.9 5.6 2 78.5 2h75.4l-60.3 46c-33.2 25.4-61.1 47.3-62.1 48.8s-1.8 4.5-1.8 6.7c0 2.3 8.8 32.5 21.6 74 25.9 83.8 23.5 75.7 22.1 74.8-.6-.3-26.9-20.4-58.4-44.5-31.5-24-58.2-44.2-59.3-44.8-2.4-1.3-9.6-1.3-12 0-1.1.6-27.7 20.7-59.2 44.8-31.5 24.1-57.8 44.1-58.5 44.5-1.5.9-3.9 9.3 22.1-74.8 12.4-40.5 21.6-71.7 21.6-74 0-2.3-.8-5.1-2.1-6.9-1.2-1.7-29.1-23.7-62.1-48.9l-60-45.7h75.7c75 0 75.7 0 78.6-2.1 1.6-1.1 3.5-3.3 4.2-4.7.8-1.5 11.2-34.8 23.3-73.9C245.6 91.1 255.7 59 256 59c.3 0 10.4 32.1 22.4 71.3z"/></svg>