<svg version="1.0" xmlns="http://www.w3.org/2000/svg" width="16" height="16" viewBox="0 0 512 512"><path d="M19.2 2.1C12.1 4.9 4.8 12.2 2.1 19.5.1 24.8 0 27 0 64c0 36.9.1 39.2 2.1 44.4 2.5 6.7 8.6 13.3 15.4 16.6l5 2.5 232.2.3 232.2.2 5.5-2.1c6.7-2.5 13.3-8.6 16.6-15.4l2.5-5 .3-40.1c.3-38.8.2-40.3-1.9-45.8-2.8-7.5-9.9-14.7-17.4-17.5L486.9 0 255.7.1C25.8.1 24.5.1 19.2 2.1zm465.3 21.1c5.3 2.4 5.5 3.8 5.5 40.8s-.2 38.4-5.5 40.8c-3.8 1.7-453.2 1.7-457 0-5.3-2.4-5.5-3.8-5.5-41 .1-36.7.2-37.7 5.1-40.4 3.4-1.9 453.4-2.1 457.4-.2zM22.6 171.7c-9.4 2.8-16.3 9-20.5 18.3-2 4.5-2.1 6-2.1 150.7C0 485.9 0 487 2.1 492.4c2.5 6.7 8.6 13.3 15.4 16.6l5 2.5 232.2.3 232.2.2 5.5-2.1c6.7-2.5 13.3-8.6 16.6-15.4l2.5-5 .3-146.4c.1-93.8-.1-147.6-.8-150-1.5-5.7-6.5-12.7-11.7-16.5-9.8-7.1 9-6.6-243.9-6.5-200.8 0-228.5.2-232.8 1.6zM482.2 193c2 .6 4.6 2.2 5.8 3.7 2 2.6 2 3 2 144 0 153.7.3 145.5-5.5 148.1-3.8 1.7-453.2 1.7-457 0-5.8-2.6-5.5 5.6-5.5-148.1 0-141.4 0-141.4 2.1-144.1 1.1-1.4 3.5-3 5.2-3.5 4.6-1.3 448.1-1.4 452.9-.1z"/><path d="M280.4 234.9c-9.8 2.4-17.6 9.1-22.3 19l-2.6 5.6-.3 77.5c-.3 80.8-.1 86.4 3.9 94.3 3.1 5.9 10.2 12.3 16.5 14.6 5.3 2 7.2 2.1 76.4 2.1s71.1-.1 76.4-2.1c6.3-2.3 13.4-8.7 16.5-14.7 3.9-7.7 4.2-14.5 3.9-94.7l-.3-77-2.6-5.6c-3.6-7.6-8.6-12.9-15.6-16.5l-5.8-2.9-70.5-.2c-38.8-.1-71.9.2-73.6.6zM418.2 257c2 .6 4.6 2.2 5.8 3.7 2 2.5 2 3.5 2 79.9 0 57.8-.3 78-1.2 79.9-2.5 5.6-1.1 5.5-72.8 5.5s-70.3.1-72.8-5.5c-.9-1.9-1.2-22.1-1.2-79.9 0-76.6 0-77.4 2.1-80 1.1-1.4 3.5-3 5.2-3.5 4.5-1.3 128.2-1.4 132.9-.1zM67.7 258c-6.2 4.9-5.1 15.1 1.8 18.5 4.8 2.2 132.7 2.3 138.1 0 6.9-2.9 8.2-12.9 2.3-17.9l-3.1-2.6h-68.2c-67.3 0-68.4 0-70.9 2zM67.7 322c-6.2 4.9-5.1 15.1 1.8 18.5 4.8 2.2 132.7 2.3 138.1 0 6.9-2.9 8.2-12.9 2.3-17.9l-3.1-2.6h-68.2c-67.3 0-68.4 0-70.9 2zM67.7 386c-6.2 4.9-5.1 15.1 1.8 18.5 4.8 2.2 132.7 2.3 138.1 0 6.9-2.9 8.2-12.9 2.3-17.9l-3.1-2.6h-68.2c-67.3 0-68.4 0-70.9 2z"/></svg>