<svg version="1.0" xmlns="http://www.w3.org/2000/svg" width="16" height="16" viewBox="0 0 512 512"><path d="M231.5 31c-50.2 4.5-94 19.2-131.2 44-15.4 10.2-23.5 16.8-36.2 29.3-31.9 31.4-52.6 68.8-61.2 110.3-2.6 12.9-3.7 44-1.9 58.1 6 48.8 35.6 96.1 78.5 126l8.4 5.8-.5 4.5c-.9 7-5.7 20.2-10.5 28.7-3.4 6.1-8.2 11.6-21.6 25.4C45.8 472.8 38 481 38 481.5c0 .4 12.3.5 27.3.2 22.3-.4 28.8-.9 36.2-2.5 24.5-5.5 44.9-15.9 64.1-32.8 5.8-5.1 6.2-5.3 9.5-4.4 1.9.6 9.3 2.1 16.4 3.5 76.1 14.5 158.3 3.3 215.2-29.4 53.9-30.9 89.7-78.8 101.9-136.6 3.2-14.8 4.4-46.4 2.4-62.2-5.3-43.6-23.7-81.6-54.9-113.7-38.5-39.5-90.9-63.3-156.1-71.1-16.2-1.9-54.5-2.7-68.5-1.5zm49 31c38.3 2.9 69.2 10.6 98.2 24.5 38.8 18.6 68 46.5 85.3 81.3 12.1 24.5 17 45.6 17 72.9 0 81.2-57.7 148.4-146.8 170.9-51.8 13-110.7 12-162.5-2.8l-10.9-3.1-8.9 9.5c-10.3 11.1-19.6 18.3-31.5 24.4-11.4 5.9-11.8 5.8-8.8-1.8 5-12.7 8.4-30.9 8.4-44.3l-.1-6-8.2-5C70.3 357.5 42 320 33.5 279c-13.4-64.2 20.6-136.2 84.2-178.3C162.7 70.8 219 57.5 280.5 62z"/></svg>