<svg version="1.0" xmlns="http://www.w3.org/2000/svg" width="16" height="16" viewBox="0 0 512 512"><path d="M232.1 1.6C177.3 10.8 131.5 57 122.5 112c-1.9 12.2-1.9 33.8 0 46 9 55.5 55 101.5 110.5 110.5 12.2 1.9 33.8 1.9 46 0 55.5-9 101.5-55 110.5-110.5 1.9-12.2 1.9-33.8 0-46-9-55.5-55-101.5-110.5-110.5-11.7-1.9-35.4-1.8-46.9.1zm35.4 29.8c20 1.6 42.5 11.8 59.2 27 13.4 12.2 25.5 32.4 30.5 50.6 2 7.3 2.3 10.9 2.3 26 0 20.4-1.6 28.1-9.1 43.9-10.6 22.4-27.6 39.5-49.9 50.2-45.9 21.9-100 7.5-130-34.6-6-8.3-12.8-23-15.7-33.5-2-7.4-2.3-10.8-2.3-26 0-20.3 1.6-28 8.9-43.6 5.9-12.4 11.5-20.4 21-30 17.7-17.6 40.4-28.3 64.4-30.3 4.8-.4 9.8-.6 11.2-.5 1.4.2 5.7.5 9.5.8zM197.5 301.6c-57.5 9.1-106.8 41.9-137.7 91.7-18 28.8-28.8 65.8-28.8 98 0 12.3 1 15.1 6.6 18.8 2.8 1.8 9 1.9 218.4 1.9s215.6-.1 218.4-1.9c5.6-3.7 6.6-6.5 6.6-19 0-49.1-22.9-100.9-60.7-137.1-27.7-26.6-58.5-42.7-97.9-51.2-9.3-2-13.1-2.1-62.9-2.4-42.1-.2-54.9 0-62 1.2zm98 29.4c52 3.6 97.7 30 127 73.5 6.2 9.3 16.7 31 19.9 41.2 2.4 7.8 5.6 22.6 7 32.1l.6 4.2H62l.6-4.2c1.4-9.5 4.6-24.3 7-32.1 3.2-10.2 13.7-31.9 19.9-41.2 28.8-42.7 75.2-70 125-73.4 15.7-1.1 65.7-1.2 81-.1z"/></svg>