<svg width="109" height="42" viewBox="0 0 109 42" fill="none" xmlns="http://www.w3.org/2000/svg">
<g opacity="0.5">
<mask id="mask0_239_2449" style="mask-type:luminance" maskUnits="userSpaceOnUse" x="7" y="8" width="94" height="26">
<path d="M101 8H7V33.3084H101V8Z" fill="white"/>
</mask>
<g mask="url(#mask0_239_2449)">
<path d="M91.6621 25.3154H89.1915C88.6426 25.3154 88.2961 24.967 88.2961 24.488C88.2961 24.009 88.708 23.726 89.1915 23.726H93.6563L94.6895 21.4471H89.1915C86.9233 21.4471 85.6151 22.8261 85.6151 24.6259C85.6151 26.5564 86.8509 27.6668 88.845 27.6668H91.3157C91.8646 27.6668 92.2111 28.0151 92.2111 28.4941C92.2111 28.9804 91.8646 29.3215 91.3157 29.3215H85.9555V31.6003H91.3157C93.5838 31.6003 94.892 30.2867 94.892 28.3562C94.892 26.4185 93.7217 25.3154 91.6621 25.3154ZM81.8372 25.3154H79.3666C78.8176 25.3154 78.4703 24.967 78.4703 24.488C78.4703 24.009 78.8822 23.726 79.3666 23.726H83.8313L84.8646 21.4471H79.3666C77.0984 21.4471 75.7902 22.8261 75.7902 24.6259C75.7902 26.5564 77.026 27.6668 79.0201 27.6668H81.4907C82.0397 27.6668 82.3861 28.0151 82.3861 28.4941C82.3861 28.9804 82.0397 29.3215 81.4907 29.3215H76.1297V31.6003H81.4907C83.7589 31.6003 85.0662 30.2867 85.0662 28.3562C85.0662 26.4185 83.8959 25.3154 81.8372 25.3154ZM66.1678 31.5277H74.6199V29.2488H68.8479V27.5942H74.4829V25.3154H68.8479V23.726H74.6199V21.4544H66.1678V31.5277ZM60.8722 25.729H58.0542V23.726H60.8722C61.696 23.726 62.1071 24.2122 62.1071 24.7638C62.0425 25.3154 61.6306 25.729 60.8722 25.729ZM64.795 24.6985C64.795 22.768 63.4223 21.4544 61.2187 21.4544H55.4466V31.535H58.1267V28.0151H59.0875L62.1149 31.535H65.4164L62.1149 27.8772C63.7617 27.5288 64.795 26.2806 64.795 24.6985ZM50.3605 25.9395H47.4709V23.7333H50.3605C51.1843 23.7333 51.5962 24.2194 51.5962 24.8364C51.5308 25.4533 51.1189 25.9395 50.3605 25.9395ZM50.6354 21.4544H44.7909V31.535H47.4779V28.2184H50.5699C52.839 28.2184 54.2109 26.7669 54.2109 24.8364C54.2109 22.8333 52.839 21.4544 50.6354 21.4544ZM44.3135 21.4544H40.875L38.2674 24.4953L35.6519 21.4544H32.148L36.5473 26.4257L32.0825 31.535H35.5219L38.202 28.3562L40.9545 31.535H44.4584L39.9212 26.3605L44.3135 21.4544ZM23.2185 31.5277H31.6715V29.2488H25.8986V27.5942H31.5336V25.3154H25.8986V23.726H31.6715V21.4544H23.2185V31.5277ZM91.9946 15.8227L87.8693 9.67566H84.5033V19.7563H87.1834V13.3334L91.3732 19.7563H94.6023V9.68292H91.9946V15.8227ZM76.3976 15.4816L77.7695 12.0996L79.1423 15.4816H76.3976ZM76.1227 9.68292L71.7234 19.7635H74.6775L75.5014 17.6951H80.1756L81.0718 19.7635H84.0984L79.5612 9.68292H76.1227ZM67.3232 14.7921V14.5817C67.3232 13.0649 68.1471 12.0271 69.8663 12.0271H72.8937V9.68292H69.6638C66.3624 9.68292 64.6502 11.8239 64.6502 14.5817V14.7921C64.6502 17.8984 66.5718 19.6909 69.5268 19.6909H70.4231L71.521 17.4121H69.9387C68.3565 17.4847 67.3232 16.5847 67.3232 14.7921ZM60.5903 9.68292V19.7635H63.2704V9.68292H60.5903ZM55.2302 13.9575H52.4122V11.9545H55.2302C56.0531 11.9545 56.465 12.4407 56.465 12.9923C56.465 13.5439 56.0531 13.9575 55.2302 13.9575ZM59.1451 12.927C59.1451 10.9965 57.7732 9.68292 55.5696 9.68292H49.7967V19.7635H52.4777V16.2436H53.4385L56.465 19.7635H59.8319L56.5305 16.1057C58.1843 15.7574 59.1451 14.5091 59.1451 12.927ZM39.5599 19.7563H48.0129V17.4774H42.2408V15.8227H47.875V13.5439H42.2408V11.9545H48.0129V9.68292H39.5599V19.7563ZM31.0423 16.0332L28.7741 9.68292H24.5843V19.7635H27.1919V12.5133L29.8004 19.7635H32.2056L34.8857 12.5133V19.7635H37.4942V9.68292H33.3035L31.0423 16.0332ZM16.4707 15.4816L17.8435 12.0996L19.2163 15.4816C19.2232 15.4816 16.4707 15.4816 16.4707 15.4816ZM16.1312 9.68292L11.7319 19.7635H14.6869L15.5099 17.6951H20.1841L21.0804 19.7635H24.1069L19.6421 9.68292H16.1312Z" fill="white"/>
</g>
</g>
</svg>
