<svg width="512" height="803" viewBox="0 0 512 803" fill="none" xmlns="http://www.w3.org/2000/svg">
<mask id="mask0_133_29612" style="mask-type:alpha" maskUnits="userSpaceOnUse" x="0" y="0" width="512" height="803">
<path d="M3.50784e-05 802.5L0 6.10352e-05L512 3.86549e-05L512 802.5L3.50784e-05 802.5Z" fill="#1E2531"/>
</mask>
<g mask="url(#mask0_133_29612)">
<g opacity="0.4">
<g opacity="0.6">
<path opacity="0.0625" d="M495.083 -376.488C454.444 -266.02 273.658 -232.899 237.685 -124.007C208.184 -32.7092 343.344 100.692 382.321 167.631C414.909 222.966 447.038 286.304 415.813 347.035C391.726 394.16 335.198 428.535 277.654 454.563C201.783 488.875 118.406 513.651 47.2982 554.333C-23.8092 595.016 -93.9116 664.355 -82.9903 730.289C-75.9153 772.872 -29.6707 806.052 -5.76891 841.531C17.8702 876.277 24.4285 900.286 3.25765 957.834" stroke="#BDD1FF" stroke-width="0.757874" stroke-miterlimit="10"/>
<path opacity="0.125" d="M493.926 -376.007C454.269 -268.293 288.725 -234.015 258.251 -128.914C233.687 -40.3559 364.027 87.4723 402.477 153.84C433.704 207.805 464.003 269.145 434.169 328.342C410.755 374.958 356.252 409.452 300.056 435.928C225.038 471.31 141.581 496.621 69.7392 536.476C-2.27084 576.308 -86.2261 648.098 -79.0691 717.462C-74.2497 763.572 -17.2762 800.01 3.88734 838.119C24.1296 874.85 24.1962 897.509 2.15527 957.377" stroke="#BDD1FF" stroke-width="0.757874" stroke-miterlimit="10"/>
<path opacity="0.1875" d="M492.789 -377.483C454.073 -272.371 305.214 -236.547 280.046 -135.39C260.48 -49.4366 384.381 72.7762 421.11 138.637C450.624 191.261 478.501 250.746 450.212 308.24C427.563 354.289 375.263 389.115 321.026 416.166C247.501 452.622 164.746 478.895 92.3746 518.013C20.0514 556.999 -77.2863 631.556 -74.1956 704.266C-72.2017 753.888 -4.58511 793.336 12.9955 834.427C29.6648 873.168 24.2902 894.52 1.25797 957.056" stroke="#BDD1FF" stroke-width="0.757874" stroke-miterlimit="10"/>
<path opacity="0.25" d="M491.761 -376.97C453.991 -274.495 321.674 -237.364 302.041 -140.143C287.398 -56.9442 405.946 59.4888 441.625 124.974C469.565 176.197 495.338 233.782 468.531 289.609C446.585 335.144 396.495 370.103 343.636 397.597C271.228 435.145 188.655 462.118 115.835 500.303C42.8459 538.465 -68.312 615.464 -69.1232 691.563C-69.6452 744.658 8.83964 787.222 23.3157 831.019C36.6618 871.605 24.6176 891.725 0.671433 956.695" stroke="#BDD1FF" stroke-width="0.757874" stroke-miterlimit="10"/>
<path opacity="0.3125" d="M490.708 -376.453C453.922 -276.712 338.565 -238.071 324.159 -144.931C314.643 -64.5657 427.426 46.354 462.049 111.345C488.588 161.07 512.163 216.901 486.886 270.949C465.862 315.879 417.79 351.095 366.512 379.07C295.264 417.727 213.094 445.44 139.526 482.667C66.0779 520.048 -59.0865 599.628 -63.6136 679.022C-66.84 735.574 22.7248 781.003 33.9695 827.774C43.963 870.211 24.0042 888.938 -0.812514 956.226" stroke="#BDD1FF" stroke-width="0.757874" stroke-miterlimit="10"/>
<path opacity="0.375" d="M488.328 -376.171C452.495 -279.051 353.455 -239.089 344.317 -149.641C339.514 -71.9376 445.853 33.2254 478.809 97.7106C503.398 146.057 524.669 200.046 500.723 252.49C480.419 296.975 434.768 332.542 385.398 360.935C315.876 400.824 234.289 429.333 160.695 465.884C87.1016 502.435 -51.3052 584.798 -59.6188 667.702C-65.7374 727.884 34.2038 776.125 41.669 825.844C48.343 870.045 22.0251 887.622 -3.78075 957.561" stroke="#BDD1FF" stroke-width="0.757874" stroke-miterlimit="10"/>
<path opacity="0.4375" d="M489.415 -376.106C454.517 -281.609 370.032 -240.641 366.544 -155.108C366.949 -80.1175 468.564 19.3734 500.55 83.4881C523.967 130.352 543.311 182.472 520.777 233.379C501.161 277.348 457.746 313.046 409.415 341.83C340.768 382.77 259.261 411.822 184.726 447.516C110.192 483.21 -42.7784 568.049 -54.6829 654.221C-63.415 717.838 48.3473 769.144 52.6012 821.673C56.2172 867.742 23.9945 884.208 -2.67614 956.429" stroke="#BDD1FF" stroke-width="0.757874" stroke-miterlimit="10"/>
<path opacity="0.5" d="M488.64 -376.55C454.729 -284.781 387.945 -242.233 389.801 -160.757C395.231 -88.4738 490.889 5.37289 521.72 68.9792C543.668 114.343 560.748 164.708 539.582 213.818C520.896 257.181 479.554 293.134 432.871 322.401C365.603 364.606 284.34 394.228 209.341 429.003C134.342 463.778 -32.3902 551.223 -47.9184 640.821C-59.5949 707.98 63.554 762.028 64.2 817.463C64.8193 865.285 24.2093 880.306 -3.42424 955.091" stroke="#BDD1FF" stroke-width="0.757874" stroke-miterlimit="10"/>
<path opacity="0.5625" d="M488.008 -375.844C455.049 -286.701 402.768 -243.107 409.993 -165.319C420.286 -95.8276 510.346 -7.61942 539.781 55.6498C560.193 99.6893 575.045 148.224 555.179 195.72C537.186 238.631 498.071 274.902 453.073 304.553C387.049 347.917 306.314 378.328 230.799 412.362C155.285 446.395 -25.1896 536.567 -44.4422 629.394C-59.0359 700.031 75.3281 757.109 72.1818 815.483C69.5725 865.214 23.7845 879.259 -4.79316 956.552" stroke="#BDD1FF" stroke-width="0.757874" stroke-miterlimit="10"/>
<path opacity="0.625" d="M487.623 -377.306C455.598 -290.744 420.52 -245.795 433.201 -172.038C448.461 -105.255 532.675 -22.6525 560.702 40.2151C579.624 82.7583 592.202 129.546 573.871 175.272C556.757 217.71 519.893 254.258 476.272 284.213C411.66 328.841 331.229 359.828 255.31 392.954C179.392 426.08 -14.8492 518.997 -37.5056 615.135C-55.0412 689.307 90.4926 749.082 83.7397 810.358C78.1355 861.839 24.515 874.525 -4.97678 954.245" stroke="#BDD1FF" stroke-width="0.757874" stroke-miterlimit="10"/>
<path opacity="0.6875" d="M486.871 -376.657C455.838 -292.835 436.187 -246.659 454.388 -176.806C474.729 -112.733 554.075 -35.7562 581.089 26.6072C598.754 67.6753 609.424 112.755 592.235 156.785C576.043 198.604 541.109 235.374 498.941 265.771C435.472 311.475 354.999 343.119 278.247 375.271C201.494 407.424 -7.56866 502.78 -33.5884 602.335C-53.9496 679.888 103.822 742.749 93.6178 806.783C85.1067 860.006 24.7301 871.623 -5.67027 953.739" stroke="#BDD1FF" stroke-width="0.757874" stroke-miterlimit="10"/>
<path opacity="0.75" d="M486.268 -377.414C456.184 -296.183 452.811 -248.728 476.074 -182.718C501.041 -121.306 574.155 -50.1395 599.214 11.9737C615.18 51.5783 622.739 94.8678 607.735 137.284C593.072 178.779 559.819 215.8 519.367 246.591C457.57 293.659 378.035 325.875 301.018 357.468C224.002 389.061 2.61297 487.233 -27.0694 590.199C-50.4442 671.379 117.336 736.977 103.267 803.963C91.6392 859.13 24.5064 869.427 -6.8423 954.074" stroke="#BDD1FF" stroke-width="0.757874" stroke-miterlimit="10"/>
<path opacity="0.8125" d="M485.342 -376.493C456.246 -297.988 468.529 -249.507 497.245 -187.494C527.44 -128.997 595.251 -63.4449 619.167 -1.81111C633.988 36.2799 639.934 77.8422 625.597 118.429C611.164 159.28 580.588 196.552 541.564 227.579C481.004 275.771 401.495 308.439 323.987 339.039C246.479 369.64 10.5826 470.067 -22.4208 576.259C-48.5864 660.667 131.09 729.075 113.366 798.801C98.9601 855.762 25.2866 864.857 -6.91507 951.746" stroke="#BDD1FF" stroke-width="0.757874" stroke-miterlimit="10"/>
<path opacity="0.875" d="M484.491 -378.68C456.338 -302.758 485.675 -252.768 519.803 -194.548C554.806 -138.687 617.359 -78.6658 639.762 -17.3571C653.143 19.3092 657.03 59.2295 644.031 98.0916C630.497 138.396 602.098 175.99 564.492 207.511C505.397 257.042 426.057 290.323 348.028 320.063C270 349.803 20.1577 452.994 -16.3126 562.762C-45.6002 650.783 145.698 722.121 124.21 794.813C106.82 853.6 24.7086 861.298 -8.4984 950.851" stroke="#BDD1FF" stroke-width="0.757874" stroke-miterlimit="10"/>
<path opacity="0.9375" d="M484.976 -377.934C457.771 -304.605 501.488 -253.614 540.891 -199.213C580.731 -145.992 637.744 -91.6784 658.541 -30.7095C670.596 4.54655 672.274 42.6643 660.344 80.0366C647.656 119.923 621.462 157.839 585.377 189.726C527.715 240.453 448.648 274.493 370.209 303.522C291.771 332.55 28.1774 438.529 -11.496 551.634C-44.0257 643.112 158.471 717.46 133.265 792.986C112.84 853.73 25.5584 860.476 -8.55285 952.429" stroke="#BDD1FF" stroke-width="0.757874" stroke-miterlimit="10"/>
<path d="M-40.9939 1037.44L-10.3363 954.579C24.7077 859.857 119.335 854.452 142.6 791.567C171.658 713.028 -44.359 635.018 -9.07172 539.639C34.1977 422.685 313.584 314.064 393.172 285.999C472.759 257.933 552.271 223.36 608.81 171.261C643.808 139.015 667.965 100.582 679.718 61.1386C690.447 25.4257 690.847 -11.1511 679.824 -45.1478C660.172 -106.177 607.657 -155.127 562.412 -205.981C517.168 -256.836 457.254 -309.287 483.538 -380.328L519.061 -476.345" stroke="#BDD1FF" stroke-width="0.757874" stroke-miterlimit="10"/>
</g>
</g>
</g>
</svg>
