<svg width="109" height="42" viewBox="0 0 109 42" fill="none" xmlns="http://www.w3.org/2000/svg">
<g clip-path="url(#clip0_239_2510)">
<g opacity="0.5">
<mask id="mask0_239_2510" style="mask-type:luminance" maskUnits="userSpaceOnUse" x="6" y="8" width="96" height="27">
<path d="M102 8.84546H6V34.1546H102V8.84546Z" fill="white"/>
</mask>
<g mask="url(#mask0_239_2510)">
<mask id="mask1_239_2510" style="mask-type:luminance" maskUnits="userSpaceOnUse" x="10" y="5" width="88" height="38">
<path d="M97.6382 5.54889H10.1865V42.0717H97.6382V5.54889Z" fill="white"/>
</mask>
<g mask="url(#mask1_239_2510)">
<path d="M12.1012 20.3445H10.231V11.748H12.1012V15.1439H15.4429V11.748H17.3131V20.3445H15.4429V16.7831H12.1012V20.3445Z" fill="white"/>
<path d="M20.1659 16.5484H22.3939C22.352 15.9164 22.0911 15.4759 21.3624 15.4759C20.8117 15.4759 20.3308 15.7101 20.1659 16.5484ZM21.5823 20.4536C19.6841 20.4536 18.3916 19.2572 18.3916 17.2919C18.3916 15.3799 19.6571 14.0602 21.3344 14.0602C23.1637 14.0602 24.0713 15.2838 24.0713 17.1128V17.8005H20.1659C20.3858 18.7485 21.1285 18.9957 21.8712 18.9957C22.5179 18.9957 22.9848 18.8588 23.5626 18.5007H23.6315V19.917C23.1366 20.2751 22.4341 20.4536 21.5823 20.4536Z" fill="white"/>
<path d="M28.9394 16.7405L27.9768 20.3427H26.3405L24.4702 14.2956V14.2268H26.2584L27.2761 17.8432L28.2386 14.2268H29.6961L30.6727 17.8432L31.7043 14.2268H33.4235V14.2956L31.5533 20.3427H29.916L28.9394 16.7405Z" fill="white"/>
<path d="M36.43 20.4382C34.9446 20.4382 34.3398 19.8471 34.3398 18.4587V11.706H36.1551V18.3342C36.1551 18.7604 36.32 18.9116 36.677 18.9116C36.8009 18.9116 36.9798 18.8707 37.0898 18.8292H37.1177V20.328C36.9667 20.3824 36.7049 20.4382 36.43 20.4382Z" fill="white"/>
<path d="M39.4203 16.5484H41.6484C41.6074 15.9164 41.3464 15.4759 40.6168 15.4759C40.067 15.4759 39.5853 15.7101 39.4203 16.5484ZM40.8368 20.4536C38.9395 20.4536 37.647 19.2572 37.647 17.2919C37.647 15.3799 38.9115 14.0602 40.5898 14.0602C42.419 14.0602 43.3267 15.2838 43.3267 17.1128V17.8005H39.4203C39.6403 18.7485 40.3829 18.9957 41.1256 18.9957C41.7723 18.9957 42.2393 18.8588 42.8179 18.5007H42.8868V19.917C42.3911 20.2751 41.6903 20.4536 40.8368 20.4536Z" fill="white"/>
<path d="M50.7999 14.225H52.1474V15.6823H50.7999V18.1711C50.7999 18.7077 51.0058 18.9554 51.5556 18.9554C51.7075 18.9554 51.8995 18.9412 52.1063 18.8724H52.1474V20.3025C51.9135 20.3855 51.5557 20.4809 51.0338 20.4809C49.5615 20.4809 48.9837 19.8074 48.9837 18.2535V15.6823H46.6605V18.1711C46.6605 18.7077 46.8665 18.9554 47.4163 18.9554C47.5681 18.9554 47.7601 18.9412 47.967 18.8724H48.008V20.3025C47.7741 20.3855 47.4163 20.4809 46.8944 20.4809C45.4221 20.4809 44.8443 19.8074 44.8443 18.2535V15.6823H43.9097V14.225H44.8443V12.5479H46.6605V14.225H48.9837V12.5479H50.7999V14.225Z" fill="white"/>
<path d="M58.2521 15.9346C59.2017 15.9346 59.6546 15.3987 59.6546 14.6286C59.6546 13.8306 59.2017 13.2946 58.2521 13.2946H57.0696V15.9346H58.2521ZM61.5537 14.6286C61.5537 16.499 60.3021 17.5158 58.4031 17.5158H57.0696V20.307H55.2002V11.7105H58.4031C60.3021 11.7105 61.5537 12.7279 61.5537 14.6256" fill="white"/>
<path d="M65.551 18.3978V17.8756C65.2761 17.7249 64.9191 17.6698 64.5473 17.6698C63.9556 17.6698 63.5987 17.8892 63.5987 18.3842C63.5987 18.8935 63.9556 19.1134 64.4915 19.1134C65.0003 19.1134 65.386 18.852 65.551 18.3978ZM65.606 19.7182C65.2071 20.1996 64.6163 20.4331 63.9827 20.4331C62.7871 20.4331 61.8096 19.7051 61.8096 18.4115C61.8096 17.2157 62.787 16.4183 64.1886 16.4183C64.6285 16.4183 65.0832 16.4871 65.551 16.624V16.5149C65.551 15.8545 65.1792 15.5664 64.2035 15.5664C63.5839 15.5664 62.993 15.7442 62.4842 16.0335H62.4153V14.5757C62.8831 14.3012 63.7087 14.067 64.5194 14.067C66.3626 14.067 67.3662 14.9468 67.3662 16.4871V20.3229H65.606V19.7182Z" fill="white"/>
<path d="M68.2568 17.2606C68.2568 15.2941 69.6462 14.0568 71.4615 14.0568C72.1082 14.0568 72.713 14.1944 73.1668 14.524V16.0779H73.0979C72.6981 15.7755 72.2312 15.5965 71.6954 15.5965C70.7877 15.5965 70.1 16.216 70.1 17.2606C70.1 18.3053 70.7877 18.9106 71.6954 18.9106C72.2312 18.9106 72.6981 18.7315 73.0979 18.4286H73.1668V19.9825C72.713 20.3127 72.1082 20.4502 71.4615 20.4502C69.6462 20.4502 68.2568 19.2271 68.2568 17.2606Z" fill="white"/>
<path d="M76.1297 17.5436V20.3205H74.3145V11.7241H76.1297V16.6188L77.959 14.1987H80.0212V14.2675L77.822 17.045L80.0212 20.2488V20.3176H77.945L76.1297 17.5407" fill="white"/>
<path d="M84.096 18.3978V17.8756C83.822 17.7249 83.4633 17.6698 83.0924 17.6698C82.5015 17.6698 82.1437 17.8892 82.1437 18.3842C82.1437 18.8935 82.5015 19.1134 83.0365 19.1134C83.5462 19.1134 83.931 18.852 84.096 18.3978ZM84.151 19.7182C83.7521 20.1996 83.1605 20.4331 82.5286 20.4331C81.3312 20.4331 80.3555 19.7051 80.3555 18.4115C80.3555 17.2157 81.3312 16.4183 82.7354 16.4183C83.1753 16.4183 83.6282 16.4871 84.096 16.624V16.5149C84.096 15.8545 83.7251 15.5664 82.7485 15.5664C82.1297 15.5664 81.538 15.7442 81.0292 16.0335H80.9603V14.5757C81.4281 14.3012 82.2537 14.067 83.0644 14.067C84.9085 14.067 85.9121 14.9468 85.9121 16.4871V20.3229H84.151V19.7182Z" fill="white"/>
<path d="M88.9815 15.1763C89.3114 14.5023 89.7931 14.1175 90.4678 14.1175C90.7147 14.1175 90.9617 14.1726 91.0577 14.2278V15.9601H90.9888C90.7828 15.8771 90.5358 15.8226 90.1919 15.8226C89.6282 15.8226 89.1883 16.1528 89.0365 16.7848V20.3052H87.2212V14.1869H88.9815V15.1763Z" fill="white"/>
<path d="M95.8596 18.2551V16.2886C95.5567 15.8487 95.1588 15.6566 94.7041 15.6566C93.9073 15.6566 93.3705 16.2346 93.3705 17.2793C93.3705 18.3239 93.9073 18.8877 94.7041 18.8877C95.1588 18.8877 95.5567 18.695 95.8596 18.2551ZM95.9137 19.6993C95.5288 20.1943 94.924 20.4689 94.0993 20.4689C92.531 20.4689 91.5273 19.0394 91.5273 17.2793C91.5273 15.5191 92.531 14.0755 94.0993 14.0755C94.897 14.0755 95.4738 14.3233 95.8596 14.7768V11.7384H97.6748V20.3289H95.9137V19.697" fill="white"/>
<path d="M10.251 23.1414H15.5598V24.186H11.4475V26.8118H15.1741V27.8297H11.4475V30.6897H15.5598V31.7343H10.251V23.1437" fill="white"/>
<path d="M19.927 25.5608C21.2885 25.5608 22.0451 26.4548 22.0451 27.9251V31.7343H20.9036V27.953C20.9036 27.1692 20.5048 26.6054 19.6381 26.6054C18.9234 26.6054 18.3177 27.0595 18.1117 27.7052V31.7343H16.9702V25.6871H18.1117V26.5669C18.4695 26.0031 19.0744 25.5631 19.927 25.5631" fill="white"/>
<path d="M25.0954 25.6562H26.6497V26.6326H25.0954V29.891C25.0954 30.5781 25.4532 30.8123 26.099 30.8123C26.2779 30.8123 26.4708 30.7851 26.6078 30.7299H26.6497V31.7058C26.4848 31.7746 26.2508 31.8296 25.9349 31.8296C24.5176 31.8296 23.9547 31.1829 23.9547 30.0013V26.6326H22.9092V25.6562H23.9547V24.0484H25.0954V25.6562Z" fill="white"/>
<path d="M28.5575 28.1218H31.5693C31.5283 27.2284 31.0884 26.5413 30.1529 26.5413C29.2871 26.5413 28.7225 27.1875 28.5575 28.1218ZM30.3597 31.8622C28.5855 31.8622 27.375 30.6794 27.375 28.7823C27.375 26.8846 28.5025 25.5648 30.1398 25.5648C31.8041 25.5648 32.6699 26.7612 32.6699 28.5344V29.0574H28.5165C28.6404 30.281 29.4251 30.8721 30.5107 30.8721C31.1845 30.8721 31.6653 30.721 32.2021 30.322H32.2439V31.3262C31.7491 31.711 31.1015 31.8622 30.3597 31.8622Z" fill="white"/>
<path d="M35.1977 26.6043C35.4595 25.9581 36.0372 25.5734 36.6961 25.5734C36.9588 25.5734 37.1919 25.6143 37.2879 25.6694V26.7964H37.2477C37.0819 26.7146 36.807 26.6731 36.5321 26.6731C35.9133 26.6731 35.3905 27.0851 35.1977 27.7728V31.7189H34.0562V25.6717H35.1977V26.6067" fill="white"/>
<path d="M40.9379 30.8259C42.0663 30.8259 42.726 29.9325 42.726 28.7082C42.726 27.4988 42.0663 26.5917 40.9379 26.5917C40.3191 26.5917 39.7422 26.9629 39.4394 27.5533V29.8779C39.7422 30.4684 40.3191 30.8259 40.9379 30.8259ZM41.1308 25.5601C42.9321 25.5601 43.8947 27.0316 43.8947 28.7082C43.8947 30.3866 42.9321 31.8575 41.1308 31.8575C40.3881 31.8575 39.7553 31.4727 39.4394 31.0595V34.0576H38.2979V25.6864H39.4394V26.3735C39.7553 25.9473 40.3881 25.5625 41.1308 25.5625" fill="white"/>
<path d="M46.3931 26.6043C46.654 25.9581 47.2318 25.5734 47.8925 25.5734C48.1534 25.5734 48.3873 25.6143 48.4833 25.6694V26.7964H48.4423C48.2773 26.7146 48.0024 26.6731 47.7275 26.6731C47.1087 26.6731 46.586 27.0851 46.3931 27.7728V31.7189H45.2524V25.6717H46.3931V26.6067" fill="white"/>
<path d="M50.1407 23.2372C50.5396 23.2372 50.8695 23.5533 50.8695 23.9522C50.8695 24.3512 50.5396 24.6672 50.1407 24.6672C49.7559 24.6672 49.4111 24.3512 49.4111 23.9522C49.4111 23.5533 49.7559 23.2372 50.1407 23.2372Z" fill="white"/>
<path d="M49.5684 31.7248H50.7108V25.6729H49.5684V31.7248Z" fill="white"/>
<path d="M54.7885 28.1708C55.6543 28.4452 56.6169 28.8027 56.6169 29.9576C56.6169 31.1955 55.5993 31.8281 54.2937 31.8281C53.4951 31.8281 52.6983 31.6354 52.2437 31.2779V30.1918H52.2987C52.8083 30.659 53.5641 30.8653 54.2789 30.8653C54.9256 30.8653 55.5033 30.6175 55.5033 30.0951C55.5033 29.5592 55.0224 29.4353 54.0729 29.1193C53.2202 28.8442 52.2716 28.5276 52.2716 27.387C52.2716 26.2179 53.2342 25.5308 54.4587 25.5308C55.1734 25.5308 55.8061 25.6819 56.3141 26.0258V27.1261H56.2739C55.7791 26.7271 55.2005 26.4929 54.4857 26.4929C53.771 26.4929 53.3713 26.8096 53.3713 27.2358C53.3713 27.7172 53.8111 27.8541 54.7885 28.1708Z" fill="white"/>
<path d="M58.7728 28.1218H61.7837C61.7427 27.2284 61.3028 26.5413 60.3673 26.5413C59.5007 26.5413 58.9369 27.1875 58.7728 28.1218ZM60.5732 31.8622C58.7998 31.8622 57.5894 30.6794 57.5894 28.7823C57.5894 26.8846 58.717 25.5648 60.3533 25.5648C62.0185 25.5648 62.8842 26.7612 62.8842 28.5344V29.0574H58.7309C58.8548 30.281 59.6385 30.8721 60.7251 30.8721C61.3997 30.8721 61.8806 30.721 62.4164 30.322H62.4574V31.3262C61.9635 31.711 61.3159 31.8622 60.5732 31.8622Z" fill="white"/>
</g>
</g>
</g>
</g>
<defs>
<clipPath id="clip0_239_2510">
<rect width="95" height="36" fill="white" transform="translate(7 3)"/>
</clipPath>
</defs>
</svg>
