<svg width="109" height="42" viewBox="0 0 109 42" fill="none" xmlns="http://www.w3.org/2000/svg">
<g opacity="0.5">
<path d="M38.3115 7.16621C38.9126 7.44575 40.9265 8.77772 41.9236 9.85919L44.4714 8.83862L47.1707 7.93552L47.4994 7.91463C49.0322 8.38376 50.6315 8.73109 52.0863 8.89749L53.7169 8.81263L54.447 8.57692L54.6083 8.7479C54.4151 8.96959 52.0277 9.43108 51.8725 9.26086L50.5155 9.56003C50.4314 9.46752 46.4202 9.28585 46.1517 9.03C44.8263 9.89386 42.8254 10.141 41.8273 11.5048C41.8273 11.5048 41.7241 11.6865 41.5503 11.4839C41.6265 11.1784 40.9596 10.4919 40.6373 10.0834C40.1498 9.46498 38.6022 8.89162 37.5447 8.29329C36.7466 8.04433 33.44 7.58743 31.3153 7.84735L31.2974 7.78543C29.6643 7.87564 27.4126 8.04586 25.8633 7.41593C25.7677 7.35834 26.1408 7.2317 26.1719 7.23043C26.1719 7.23043 27.6756 7.41313 28.1346 7.33745C29.8215 7.13308 31.5151 7.13436 33.2356 7.01663L33.31 7.05943C35.1621 6.97381 36.9235 6.95827 38.3115 7.16621Z" fill="white"/>
<path d="M24.0291 29.0925C24.1305 29.0925 24.2253 29.0994 24.3336 29.106C24.4215 29.1129 24.5703 29.1195 24.5703 29.3089C24.5703 29.3563 24.5568 29.4106 24.5298 29.5053L23.826 31.786C23.6568 32.3477 23.6367 32.4896 23.6367 32.6522C23.6367 32.9771 23.8125 33.2477 24.0222 33.4034C24.1644 33.5117 24.5841 33.7418 25.2879 33.7418C25.809 33.7418 26.2624 33.5861 26.5534 33.3425C26.9323 33.0245 27.0811 32.5979 27.2029 32.2394L28.0693 29.4916C28.1707 29.194 28.2316 29.106 28.685 29.0925L28.7528 28.8691H27.2233L27.1555 29.0925C27.2638 29.0925 27.379 29.0925 27.4939 29.0994C27.5548 29.0994 27.7444 29.1129 27.7444 29.2888C27.7444 29.3428 27.7309 29.3971 27.6766 29.5663L26.8918 32.0702C26.6752 32.7602 26.3842 33.4574 25.3554 33.4574C24.672 33.4574 24.2997 33.1328 24.2997 32.7062C24.2997 32.5778 24.3336 32.4493 24.3741 32.3273L25.2201 29.5729C25.281 29.3632 25.3216 29.2617 25.4434 29.1804C25.5652 29.0994 25.6735 29.0994 25.9579 29.0994L26.0323 28.8691H24.0969L24.0291 29.0925Z" fill="white"/>
<path d="M31.4227 29.098C31.7815 29.1048 31.8898 29.152 32.0725 29.3551L31.0303 32.7929C30.8746 33.2598 30.7867 33.402 30.3265 33.4223L30.2656 33.6456H31.822L31.8898 33.4019C31.4836 33.4155 31.2808 33.3816 31.2808 33.1856C31.2808 33.1176 31.3144 33.0095 31.3348 32.9349L32.2754 29.8018L33.9536 33.7946H34.0688L35.321 29.4565C35.4087 29.179 35.5035 29.1048 35.9163 29.0911L35.9772 28.861H34.4748L34.4072 29.1115C34.7591 29.1115 34.9892 29.1115 34.9892 29.3143C34.9892 29.3686 34.9757 29.4297 34.9485 29.5444L34.2041 32.1569L34.1093 32.5559C34.0688 32.3936 34.0553 32.3531 34.0079 32.2448L32.6003 28.861H31.4836L31.4227 29.098Z" fill="white"/>
<path d="M38.8554 29.0986C39.0585 29.1055 39.1533 29.1055 39.2142 29.1121C39.3562 29.1322 39.4105 29.2135 39.4105 29.2948C39.4105 29.3557 39.3901 29.4235 39.3697 29.4775L38.2803 32.9898C38.2329 33.132 38.1651 33.3147 37.9284 33.3891C37.8132 33.423 37.6914 33.4161 37.5561 33.4095L37.4883 33.6462H39.4375L39.505 33.4095C39.1939 33.4026 38.9367 33.4026 38.9367 33.1929C38.9367 33.1523 38.9502 33.1047 38.9704 33.0237L40.006 29.6872C40.1683 29.1931 40.2358 29.119 40.6825 29.0986L40.7503 28.8682H38.9232L38.8554 29.0986Z" fill="white"/>
<path d="M43.0625 29.0984C43.5972 29.0915 43.7123 29.1188 43.7055 29.4569L43.5026 33.8356H43.9086L46.69 29.5991C46.9608 29.1659 47.0217 29.1119 47.4952 29.0849L47.5699 28.868H45.8712L45.8034 29.0984C46.0404 29.0984 46.1485 29.1053 46.2162 29.1053C46.2771 29.1119 46.4395 29.1188 46.4395 29.2676C46.4395 29.3282 46.4125 29.3825 46.3855 29.4503L44.3688 32.631C44.2605 32.8068 44.2536 32.8203 44.1453 33.0099C44.1792 32.739 44.1861 32.6919 44.2062 32.4345L44.3553 29.6126C44.3823 29.132 44.4771 29.0915 45.0252 29.0984L45.0996 28.868H43.1369L43.0625 29.0984Z" fill="white"/>
<path d="M49.8902 29.0916C50.0256 29.0916 50.2287 29.0985 50.2896 29.1051C50.3303 29.112 50.513 29.1321 50.513 29.2878C50.513 29.3352 50.4993 29.3826 50.4791 29.4367L49.3286 33.0572C49.2272 33.3752 49.0442 33.4091 48.5909 33.4091L48.5234 33.6461H52.5228L52.9423 32.3264H52.6989C52.6245 32.4956 52.4619 32.8475 52.0896 33.125C51.9612 33.2129 51.8325 33.2669 51.7719 33.2873C51.474 33.3887 50.892 33.3956 50.8242 33.3956C50.7498 33.3956 50.249 33.3956 50.1137 33.3011C50.0526 33.2534 50.0324 33.1994 50.0324 33.125C50.0324 33.0638 50.046 33.0101 50.0798 32.8814L50.6145 31.1962C50.8782 31.1893 51.2505 31.2028 51.3723 31.2367C51.5688 31.2844 51.6297 31.4128 51.6297 31.555C51.6297 31.6903 51.5619 31.927 51.5214 32.0759H51.7647L52.3671 30.1945H52.1166C51.8934 30.8713 51.6432 30.9391 51.1422 30.9391C50.9934 30.9391 50.8446 30.9322 50.6958 30.9253L51.2709 29.1255C51.5145 29.1186 51.7512 29.1186 51.9948 29.1255C52.6311 29.139 52.8612 29.2539 52.9966 30.0253H53.1928V28.8613H49.9647L49.8902 29.0916Z" fill="white"/>
<path fill-rule="evenodd" clip-rule="evenodd" d="M57.9456 29.0994C58.4802 29.0994 58.7779 29.0994 58.9675 29.37C59.008 29.4243 59.0956 29.5731 59.0956 29.8099C59.0956 29.9454 59.0554 30.5407 58.6359 30.8386C58.3648 31.0348 57.9793 31.0414 57.8034 31.0414C57.6679 31.0414 57.5394 31.0348 57.4039 31.0279L57.9456 29.0994ZM56.5782 29.0994C56.7339 29.0994 56.856 29.0994 56.9709 29.1129C57.1266 29.1331 57.174 29.2278 57.174 29.3023C57.174 29.397 57.1266 29.5596 57.0996 29.6542L56.1996 32.8351C56.1318 33.0719 56.0913 33.1937 55.9491 33.302C55.7934 33.4238 55.5768 33.4238 55.4007 33.4238L55.3398 33.647H57.3432L57.4107 33.4238C57.0453 33.4169 56.8287 33.4103 56.8287 33.1397C56.8287 33.0581 56.8626 32.9363 56.8896 32.8351C56.9373 32.6726 56.9778 32.5169 57.0252 32.3545C57.1266 31.996 57.2347 31.6303 57.3363 31.2649C57.8506 31.2787 58.1011 31.3189 58.2162 31.7047C58.2634 31.8604 58.2634 31.9687 58.2703 32.0905C58.2838 32.2325 58.2975 32.3951 58.311 32.5508C58.3516 33.0245 58.3786 33.3089 58.5679 33.5321C58.6833 33.6674 58.8592 33.7418 59.0689 33.7418C59.5426 33.7418 59.8 33.4646 59.9758 33.2681L59.8537 33.1055C59.7454 33.2273 59.6239 33.356 59.4274 33.356C59.3599 33.356 59.1433 33.3425 59.0689 33.011C59.0419 32.8553 59.0146 32.747 58.9675 32.4562C58.8997 32.0363 58.8388 31.7453 58.6291 31.522C58.4869 31.3798 58.3584 31.3189 58.1485 31.2445C58.5679 31.204 59.1229 31.1566 59.5156 30.6898C59.5831 30.6016 59.7793 30.3445 59.7793 29.9589C59.7793 29.4715 59.5225 29.2278 59.3599 29.1063C59.0689 28.8894 58.6897 28.8691 58.3921 28.8691C58.2295 28.8691 57.4989 28.8826 57.3501 28.8826C57.1197 28.8826 56.9373 28.8759 56.646 28.8691L56.5782 29.0994Z" fill="white"/>
<path d="M62.7297 32.002L62.3711 33.6191H62.6553L62.9124 33.2402C63.075 33.4162 63.129 33.4705 63.3321 33.5788C63.5484 33.7006 63.765 33.7478 64.056 33.7478C64.9833 33.7478 65.5248 33.0373 65.5248 32.3605C65.5248 32.083 65.4502 31.7311 65.0577 31.2915C64.9156 31.1289 64.3947 30.54 64.3608 30.4926C64.2255 30.3369 64.0629 30.114 64.0629 29.8026C64.0629 29.64 64.1373 29.4236 64.2255 29.3151C64.4082 29.1054 64.6449 29.0175 64.8885 29.0175C65.1457 29.0175 65.4097 29.1324 65.5722 29.3829C65.7751 29.7009 65.7682 30.0936 65.7682 30.3033H65.9983L66.2623 28.8483H66.0322L65.836 29.1933C65.6668 29.0175 65.4232 28.74 64.8615 28.74C63.975 28.74 63.4947 29.4303 63.4947 30.114C63.4947 30.4116 63.5958 30.7092 63.8124 31.0071C63.8937 31.1154 64.435 31.738 64.5501 31.8802C64.6923 32.0491 64.8682 32.293 64.8682 32.665C64.8682 32.7937 64.8276 33.0913 64.5435 33.3013C64.3539 33.4366 64.1304 33.4705 64.002 33.4705C63.6228 33.4705 63.0276 33.247 62.9531 32.374V32.2522C62.9531 32.1712 62.9598 32.0899 62.9598 32.002H62.7297Z" fill="white"/>
<path d="M69.4841 29.0986C69.6872 29.1055 69.782 29.1055 69.8426 29.1121C69.9851 29.1322 70.0389 29.2135 70.0389 29.2948C70.0389 29.3557 70.0187 29.4235 69.9983 29.4775L68.909 32.9898C68.8613 33.132 68.7938 33.3147 68.557 33.3891C68.4419 33.423 68.3201 33.4161 68.1847 33.4095L68.1172 33.6462H70.0661L70.1339 33.4095C69.8225 33.4026 69.5654 33.4026 69.5654 33.1929C69.5654 33.1523 69.5789 33.1047 69.5993 33.0237L70.6346 29.6872C70.797 29.1931 70.8645 29.119 71.3112 29.0986L71.379 28.8682H69.5519L69.4841 29.0986Z" fill="white"/>
<path d="M73.5463 29.9782H73.7902C73.8916 29.7412 73.9795 29.5314 74.1826 29.3487C74.4331 29.1186 74.7035 29.112 74.9473 29.112H75.4279L74.2975 32.8001C74.2435 32.9828 74.2027 33.1046 74.0947 33.2195C73.9255 33.389 73.7428 33.4025 73.3909 33.416L73.3164 33.6461H75.5699L75.6443 33.416C75.2315 33.4091 75.13 33.4091 75.0217 33.3278C74.9338 33.2534 74.9272 33.1793 74.9272 33.1319C74.9272 33.0503 74.9542 32.9693 75.0013 32.807L76.1249 29.1186H76.7135C77.018 29.1186 77.3294 29.112 77.3294 29.4772C77.3294 29.6127 77.2955 29.836 77.2688 29.9782H77.5055L77.8439 28.8613H73.9591L73.5463 29.9782Z" fill="white"/>
<path d="M80.1225 29.0917C80.6232 29.0917 80.6976 29.1391 80.7993 29.4235L81.4285 31.3385L80.9685 32.8341C80.8194 33.3687 80.6976 33.4092 80.1495 33.4161L80.082 33.6462H82.0851L82.1527 33.4092C81.7669 33.4161 81.5638 33.3957 81.5638 33.1929C81.5638 33.1182 81.6181 32.9559 81.6451 32.8746L82.146 31.2302L83.8985 29.4097C84.1627 29.1322 84.2438 29.1121 84.65 29.0782L84.7109 28.8682H82.9918L82.9309 29.0848C83.134 29.0848 83.3776 29.0917 83.4586 29.1524C83.4722 29.1592 83.5129 29.1931 83.5129 29.2474C83.5129 29.3285 83.4658 29.3827 83.3503 29.5247L81.9835 30.9866L81.4894 29.4301C81.4827 29.3894 81.469 29.3555 81.469 29.3149C81.469 29.1592 81.5842 29.1256 81.6586 29.1121C81.7128 29.0986 81.7128 29.0986 82.0105 29.0917L82.078 28.8682H80.19L80.1225 29.0917Z" fill="white"/>
<path d="M16.5846 10.4057C18.5386 10.4057 20.2923 11.7083 20.9936 14.439H21.5198V10.105H20.9936C20.9436 10.4057 20.8934 10.8817 20.3422 11.558C19.7411 10.9067 18.6889 9.80457 16.5094 9.80457C13.7537 9.80457 12.1254 11.7585 12.1254 13.9128C12.1254 17.0694 14.8561 18.2469 16.71 19.0486C16.86 19.0986 17.687 19.4494 17.837 19.5246C19.5156 20.2509 21.2191 21.2029 21.2191 23.1571C21.2191 24.6851 19.9916 26.3886 17.5366 26.3886C13.6536 26.3886 12.8269 22.3302 12.6014 21.1779H12V26.5139H12.6014C12.8017 25.5117 13.0522 25.1361 13.2026 24.9106C13.6034 25.3616 15.0314 26.9899 17.7619 26.9899C20.9436 26.9899 22.9978 25.0107 22.9978 22.2051C22.9978 19.0486 20.9436 18.0966 17.7119 16.6685C15.7829 15.8169 13.7288 14.9148 13.7288 12.9358C13.7288 11.8337 14.4802 10.4057 16.5846 10.4057Z" fill="white"/>
<path fill-rule="evenodd" clip-rule="evenodd" d="M29.9117 20.5778V24.536C29.4859 24.8866 28.0079 26.0389 26.8806 26.0389C25.9036 26.0389 25.4275 25.2123 25.4275 24.3354C25.4275 22.6572 27.2814 21.6549 28.5841 21.129L29.9117 20.5778ZM28.0079 20.7783C24.5507 22.1812 23.3984 23.3837 23.3984 24.8115C23.3984 26.2647 24.7512 26.941 25.8786 26.941C27.2562 26.941 28.6842 26.0642 29.9117 25.1873C30.0368 25.7884 30.2374 26.941 31.8657 26.941C33.2435 26.941 33.8699 25.989 33.9201 24.8617H33.469C33.2937 25.8889 32.7428 26.0389 32.4421 26.0389C31.6654 26.0389 31.6654 25.2875 31.6654 23.8345V19.7761C31.6654 18.5486 31.6654 16.269 27.8575 16.269C24.7762 16.269 23.774 17.8973 23.774 18.5736C23.774 19.0246 24.1499 19.2751 24.5257 19.2751C25.3524 19.2751 25.4777 18.4233 25.5779 17.8973C25.7532 17.0204 26.7552 16.7949 27.632 16.7949C29.6862 16.7949 29.9117 18.0227 29.9117 19.5007V20.0016L28.0079 20.7783Z" fill="white"/>
<path d="M34.1816 10.9318C35.8349 10.9318 35.8601 11.483 35.8601 13.3368V23.2571C35.8601 25.8624 35.8349 26.1379 34.357 26.1379H34.0312V26.6891H39.3923V26.1379C37.6136 26.1379 37.6136 26.063 37.6136 23.2571V9.85461C37.2879 9.85461 36.8368 10.0299 36.5364 10.1051C36.1855 10.1803 35.1334 10.3806 34.1816 10.3806V10.9318Z" fill="white"/>
<path d="M40.1641 17.4701C41.9178 17.4701 42.0679 17.4701 42.0679 20.2258V23.2572C42.0679 25.8625 42.0679 26.138 40.5899 26.138H40.1641V26.6892H45.5753V26.138C43.8216 26.138 43.8216 26.0378 43.8216 23.2572V16.2676C43.4208 16.2676 42.8194 16.4931 42.4438 16.5683C41.4917 16.7436 40.8154 16.869 40.1641 16.9192V17.4701Z" fill="white"/>
<path d="M47.0033 26.9908C47.0535 26.7653 47.2788 26.2391 47.5295 25.9636C48.1057 26.5148 48.6818 27.066 49.9845 27.066C51.7632 27.066 53.0406 25.8385 53.0406 24.135C53.0406 21.9555 51.3371 21.1788 50.0095 20.5777C48.8571 20.0515 47.6546 19.5003 47.6546 18.348C47.6546 17.6215 48.2058 16.7948 49.283 16.7948C50.8861 16.7948 51.6877 18.5985 51.8883 19.5505H52.3391V16.4442H51.8883C51.863 16.4941 51.6128 17.0955 51.4123 17.3208C50.8361 16.6445 50.1346 16.2688 49.233 16.2688C47.4541 16.2688 46.5523 17.847 46.5523 19.0495C46.5523 20.8781 48.1806 21.6798 49.3831 22.2812C50.7107 22.9325 51.8131 23.4585 51.8131 24.7614C51.8131 25.2122 51.5626 26.5398 49.9593 26.5398C48.8821 26.5398 48.1806 25.9889 47.7298 25.3625C47.2788 24.7362 47.0785 24.0097 47.0033 23.7092H46.5273V26.9908H47.0033Z" fill="white"/>
<path fill-rule="evenodd" clip-rule="evenodd" d="M55.8216 18.5237C56.3977 17.9476 57.5001 16.8704 59.0533 16.8704C60.8569 16.8704 62.2597 18.2732 62.2597 21.4797C62.2597 23.3837 61.7088 26.49 58.8277 26.49C57.0993 26.49 56.3226 25.2373 56.1223 24.8118C55.8718 24.2853 55.8216 23.8348 55.8216 22.4569V18.5237ZM55.8216 9.85583C55.5209 9.85583 55.0701 10.0564 54.7697 10.1063C54.3936 10.1815 53.3416 10.3818 52.4648 10.3818V10.933C54.0681 10.933 54.0681 11.409 54.0681 13.6887V27.0914H54.5439C54.8196 26.5153 55.3456 25.7133 55.8216 25.2373C56.7734 26.7657 58.0513 27.0914 59.1784 27.0914C62.3851 27.0914 64.2889 24.561 64.2889 21.605C64.2889 18.4485 62.1848 16.269 59.3537 16.269C58.3268 16.269 57.1492 16.6197 55.8216 17.7972V9.85583Z" fill="white"/>
<path d="M70.5812 16.6699V17.221C72.3349 17.221 72.3349 17.3212 72.3349 20.1018V22.3815C72.3349 23.4839 72.3097 24.11 71.5585 24.9871C70.6064 26.1142 69.5041 26.2395 69.0782 26.2395C67.1492 26.2395 67.1492 24.6612 67.1492 23.609V16.6699H63.7422V17.221C65.3955 17.221 65.3955 17.3714 65.3955 20.1018V23.5088C65.3955 24.0098 65.3955 25.1122 65.8213 25.7885C66.3977 26.7155 67.6003 27.0914 68.5021 27.0914C70.3307 27.0914 71.6586 25.8387 72.285 24.7616H72.3349C72.3349 25.3375 72.3599 26.3647 72.7607 27.0914C73.0364 27.0914 73.4622 26.8909 73.7627 26.8407C74.389 26.7155 74.7399 26.7155 75.6165 26.6906V26.1394C74.0886 26.1394 74.0886 25.9139 74.0886 23.2334V16.6699H70.5812Z" fill="white"/>
<path d="M79.9701 18.8229C79.9701 17.2947 79.7446 16.6684 79.6192 16.2678L79.4439 16.3177C79.0431 16.4431 77.7404 16.8439 76.6133 16.9943V17.5452C78.3418 17.5452 78.3418 17.6456 78.3418 20.4262V23.2571C78.3418 26.0377 78.3418 26.1379 76.6133 26.1379V26.6891H81.9241V26.1379H81.5735C80.0952 26.1379 80.0952 25.8624 80.0952 23.2571V21.4534C80.0952 20.1758 80.0952 19.3991 80.822 18.3719C81.2978 17.6956 82.0245 17.1444 82.5252 17.1444C82.9261 17.1444 83.1266 17.5452 83.277 17.946C83.4271 18.3219 83.5777 18.6476 84.1036 18.6476C84.5796 18.6476 84.9303 18.2467 84.9303 17.7957C84.9303 17.1946 84.3292 16.2678 83.1768 16.2678C82.2248 16.2678 80.7216 17.0692 80.0203 18.8229H79.9701Z" fill="white"/>
<path d="M89.2995 18.9497C89.1239 18.5488 88.8232 17.9225 88.8232 17.7222C88.8232 17.2963 89.4246 17.2711 90.051 17.2212V16.67H85.4414V17.2212C86.619 17.2461 86.8193 17.647 87.3954 18.8745L91.1533 26.9412L90.2013 29.321C89.8504 30.1979 89.575 30.3482 88.7231 30.7238C88.2723 30.9244 87.4456 31.3002 87.4456 32.1269C87.4456 32.6029 87.8215 32.8531 88.2221 32.8531C89.1991 32.8531 89.8005 31.751 90.4518 30.1979L94.911 19.4257C95.5373 17.9225 95.7878 17.2963 97.0405 17.2212V16.67H93.5331V17.2212C93.7836 17.2461 94.8857 17.2711 94.8857 17.8725C94.8857 18.0728 94.7856 18.3233 94.5853 18.7743C94.4852 18.9497 94.41 19.1752 94.3848 19.2251L92.0552 24.8116L89.2995 18.9497Z" fill="white"/>
</g>
</svg>
