<svg width="109" height="42" viewBox="0 0 109 42" fill="none" xmlns="http://www.w3.org/2000/svg">
<g opacity="0.5">
<mask id="mask0_239_2435" style="mask-type:luminance" maskUnits="userSpaceOnUse" x="11" y="13" width="86" height="17">
<path d="M97 13.9321H11.0024V29.0677H97V13.9321Z" fill="white"/>
</mask>
<g mask="url(#mask0_239_2435)">
<path d="M41.6403 29.0677C38.5217 29.0677 35.6318 28.1389 33.7058 26.407C33.017 25.7879 32.4678 25.0292 32.0962 24.1812C31.7238 23.3332 31.5364 22.4156 31.5469 21.4896C31.5453 20.5674 31.736 19.6549 32.1076 18.811C32.4799 17.9671 33.0243 17.2103 33.7058 16.5895C35.4947 14.9641 38.6596 13.9321 41.6403 13.9321C44.9374 13.9321 47.5774 14.7629 49.5951 16.5929C50.2741 17.2136 50.8144 17.9705 51.1812 18.8142C51.5487 19.6579 51.7337 20.5696 51.7239 21.4896C51.7191 22.4105 51.5284 23.321 51.1625 24.1661C50.7966 25.0112 50.2636 25.7735 49.5951 26.407C47.7145 28.1492 44.763 29.0677 41.6403 29.0677V27.076C43.2929 27.076 44.8271 26.505 45.8988 25.4386C46.9697 24.3722 47.4565 23.0789 47.4565 21.4827C47.4565 19.9589 46.9219 18.5347 45.8988 17.5268C44.8409 16.4863 43.2702 15.8998 41.6403 15.8998C40.0096 15.8998 38.4324 16.4811 37.3745 17.5268C36.3547 18.5364 35.8265 19.9657 35.8265 21.4827C35.8111 22.2116 35.9401 22.9362 36.2054 23.6151C36.4715 24.294 36.8683 24.9137 37.3745 25.4386C38.4324 26.493 39.9991 27.076 41.6403 27.076V29.0677ZM18.8712 13.9321C17.2048 13.9321 15.3112 14.2452 13.7114 14.9641C12.2186 15.6314 11.0025 16.703 11.0025 18.4797C11 19.4101 11.3537 20.3061 11.9914 20.9839C12.423 21.3829 13.1199 22.0606 14.9397 22.4597C15.7526 22.6317 17.492 22.9086 19.2241 23.0909C20.9555 23.2732 22.6348 23.4349 23.3228 23.6189C23.8696 23.7582 24.7896 23.9474 24.7896 24.9794C24.7896 26.0114 23.8209 26.321 23.653 26.388C23.4843 26.4551 22.3217 26.9883 20.2334 26.9883C18.8501 26.9499 17.479 26.7141 16.1623 26.2883C15.3835 26.0096 14.5665 25.6433 13.8039 24.7128C13.4964 24.2746 13.326 23.7551 13.3138 23.2199H11.4219V28.5173H13.524V27.8001C13.524 27.7469 13.5378 27.6946 13.5637 27.6485C13.5905 27.6024 13.6294 27.5643 13.6757 27.538C13.7219 27.5117 13.7738 27.4982 13.8274 27.499C13.8801 27.4997 13.932 27.5146 13.9783 27.5421C14.9681 27.973 15.9984 28.306 17.0531 28.5362C18.1573 28.7667 18.8712 28.9335 20.2439 28.9335C21.6921 28.9611 23.1354 28.7573 24.5195 28.3298C25.4387 28.0779 26.3011 27.6523 27.0597 27.076C27.4872 26.7481 27.832 26.3257 28.0681 25.8419C28.3042 25.3581 28.4243 24.8262 28.4202 24.2879C28.4275 23.2654 28.0332 22.2809 27.3217 21.5463C26.9258 21.1623 26.4674 20.8488 25.966 20.6193C25.4273 20.3758 24.8675 20.1807 24.2939 20.0363C23.2036 19.7697 20.7542 19.436 19.5835 19.319C18.3552 19.1918 16.224 19.0146 15.3729 18.7514C15.1149 18.6706 14.5884 18.4212 14.5884 17.8106C14.5884 17.3755 14.8293 17.0074 15.304 16.7099C16.0593 16.2369 17.5829 15.9428 19.1722 15.9428C20.7104 15.9242 22.2365 16.2222 23.6546 16.8182C24.0351 16.9842 24.3937 17.198 24.7207 17.4546C25.2537 17.9099 25.6229 18.5273 25.7713 19.2124H27.4694V14.6012H25.5774V15.1361C25.5774 15.3081 25.4054 15.5351 25.0614 15.3476C24.208 14.9039 21.8106 13.9442 18.8712 13.9321ZM60.4064 14.7783L69.6528 23.1219L69.5579 17.5045C69.5481 16.7666 69.4135 16.4587 68.616 16.4587H66.8782V14.7783H74.7899V16.4587H73.0927C72.2806 16.4587 72.2327 16.7202 72.2189 17.5045L72.3617 28.2387H69.6528L59.0013 18.7342V25.4782C59.0094 26.2126 59.0443 26.5583 59.7996 26.5583H61.6915V28.2387H53.9355V26.5583H55.752C56.4294 26.5583 56.4027 25.9116 56.4027 25.4403V17.5681C56.4027 17.0521 56.3297 16.4605 55.2669 16.4605H53.7952V14.7783H60.4064ZM83.8164 26.5549C83.973 26.5549 84.1296 26.5451 84.2845 26.5256C84.3649 26.5014 84.4395 26.4599 84.502 26.4041C84.5653 26.3483 84.6156 26.2794 84.6488 26.2023C84.6732 26.0828 84.6845 25.9612 84.6853 25.8394V23.1821C84.6853 23.0926 84.6853 23.0909 84.5717 22.9499C84.4582 22.8088 79.7283 17.446 79.5133 17.2052C79.2448 16.9128 78.7734 16.4605 78.0562 16.4605H76.4142V14.7783H85.6849V16.457H84.5669C84.3089 16.457 84.1369 16.703 84.3567 16.973C84.3567 16.973 87.477 20.7053 87.5062 20.7448C87.5354 20.7844 87.5606 20.793 87.6003 20.7569C87.6401 20.7207 90.7977 17.0074 90.822 16.973C90.8593 16.924 90.882 16.8653 90.8869 16.804C90.8918 16.7426 90.8788 16.681 90.8496 16.6267C90.8212 16.5724 90.7774 16.5275 90.723 16.4974C90.6695 16.4673 90.6086 16.4533 90.5469 16.457H89.3998V14.7783H97V16.4605H95.3028C94.687 16.4605 94.4428 16.574 93.9731 17.0968L88.8562 22.9344C88.8059 23.0067 88.784 23.0947 88.7937 23.1821V25.8376C88.7954 25.9595 88.8075 26.0811 88.8319 26.2006C88.8651 26.2777 88.9146 26.3468 88.9771 26.4026C89.0404 26.4585 89.1142 26.4999 89.1945 26.5239C89.3487 26.5442 89.5036 26.554 89.6594 26.5532H91.3948V28.2352H82.1719V26.5532L83.8164 26.5549Z" fill="white"/>
</g>
</g>
</svg>
