<svg width="109" height="42" viewBox="0 0 109 42" fill="none" xmlns="http://www.w3.org/2000/svg">
<g clip-path="url(#clip0_239_2480)">
<mask id="mask0_239_2480" style="mask-type:luminance" maskUnits="userSpaceOnUse" x="26" y="9" width="56" height="25">
<path d="M81.7896 9.44446H26.3159V33.258H81.7896V9.44446Z" fill="white"/>
</mask>
<g mask="url(#mask0_239_2480)">
<g opacity="0.5">
<path d="M44.7725 14.4455L39.1232 23.9028V30.2645C39.7737 31.7953 41.4173 31.9992 42.992 32.0675V32.9519H31.9322V32.0675C33.5069 31.9992 35.4244 31.7613 35.9379 30.7409V24.1749L30.1857 14.5134C29.1925 12.8804 28.2333 12.3364 26.3159 12.2001V11.3157H35.9379V12.2001C34.1234 12.3021 33.5409 12.6426 33.0273 13.0509L38.3698 22.2357L43.6085 13.0847C43.0609 12.6765 42.3415 12.3021 40.527 12.2002V11.3158H48.7452V12.2002C46.8958 12.2684 45.7317 12.8804 44.7725 14.4455ZM56.0042 33.2581C54.1557 33.2581 53.2654 31.9992 53.1965 31.115C52.0325 32.3396 50.5257 33.2581 49.0879 33.2581C47.2384 33.2581 45.6628 32.1354 45.6628 30.1966C45.6628 29.2437 45.9026 28.2572 46.3822 27.4749L53.1965 25.0254V22.508C53.1965 20.9773 52.4772 19.5143 50.9364 19.5143C50.0122 19.5143 49.1219 20.6367 49.053 22.372L45.9715 22.882V22.5421C46.9987 19.4801 50.3888 18.2897 52.0324 18.2897C55.1479 18.2897 56.2779 19.9224 56.2439 22.4398L56.1411 29.5838C56.1071 30.9787 56.8604 31.3189 57.5458 31.3189C58.0934 31.3189 58.641 30.9787 59.2914 30.3325V31.3189C58.539 32.2036 57.2032 33.2581 56.0042 33.2581ZM49.1558 27.713C49.019 28.2572 48.9161 28.7334 48.9161 29.482C48.9161 30.5024 49.4985 31.5229 50.6286 31.5229C51.6557 31.5229 52.2373 31.183 53.1625 30.4685L53.1965 25.8757C52.3063 26.2838 50.115 27.2367 49.1558 27.713ZM59.6001 32.9519V32.1693C61.1409 32.0674 61.5856 31.7272 61.8602 31.1485V13.5266C61.8602 12.37 61.6884 11.8939 59.3263 11.6897V11.0094L65.5931 9.44446L65.798 10.0231L64.8048 11.2477V31.1486C65.1475 31.8293 65.798 32.0675 67.2018 32.1694V32.952L59.6001 32.9519ZM75.42 33.224C71.8249 33.224 69.0512 30.4005 69.0512 26.4541C69.0512 21.6234 72.0307 18.3234 76.2422 18.3234C79.6324 18.3234 81.5158 20.2289 81.5158 23.2564V23.8687L72.2696 23.8008C72.2016 24.1749 72.1667 24.7875 72.1667 25.5357C72.1667 29.0056 74.3588 31.2849 77.2694 31.2849C79.0159 31.2849 79.9062 30.6725 81.276 29.5159L81.7896 30.2981C79.8373 32.0675 78.2285 33.224 75.42 33.224ZM75.7287 19.3783C74.0161 19.3783 72.8181 20.7389 72.4074 22.882L78.4343 22.8141C78.4343 21.011 77.3034 19.3783 75.7287 19.3783Z" fill="white"/>
</g>
</g>
</g>
<defs>
<clipPath id="clip0_239_2480">
<rect width="85" height="32" fill="white" transform="translate(12 5)"/>
</clipPath>
</defs>
</svg>
