<svg width="109" height="42" viewBox="0 0 109 42" fill="none" xmlns="http://www.w3.org/2000/svg">
<g opacity="0.5">
<mask id="mask0_239_2503" style="mask-type:luminance" maskUnits="userSpaceOnUse" x="7" y="11" width="93" height="21">
<path d="M99.9999 11.2555H7.76611V31.3378H99.9999V11.2555Z" fill="white"/>
</mask>
<g mask="url(#mask0_239_2503)">
<path d="M17.8067 11.2555C12.262 11.2555 7.76611 15.7507 7.76611 21.2966C7.76611 26.8416 12.262 31.3378 17.8067 31.3378C23.3523 31.3378 27.8482 26.8416 27.8482 21.2966C27.8482 15.7507 23.3523 11.2555 17.8067 11.2555ZM17.8067 30.2043C12.8869 30.2043 8.89851 26.2159 8.89851 21.2966C8.89851 16.3764 12.8869 12.3884 17.8067 12.3884C22.7266 12.3884 26.7149 16.3764 26.7149 21.2966C26.7149 26.2159 22.7266 30.2043 17.8067 30.2043Z" fill="white"/>
<path d="M25.1042 25.3407L23.6465 23.6382C23.6278 23.6176 23.6074 23.6 23.5825 23.5856C23.5078 23.5431 23.4207 23.5421 23.3478 23.5771C23.1256 23.6824 22.8563 23.6805 22.6269 23.548C22.4225 23.431 22.2927 23.2334 22.2519 23.019C22.1487 22.4727 21.819 21.9731 21.2999 21.6739L20.6466 21.2973L24.3585 19.1545L23.8989 18.3584L19.7284 20.7663L19.227 20.4773V19.8983L23.3976 17.4901L22.938 16.6942L19.227 18.8374V18.0837C19.227 17.4845 18.9595 16.948 18.5382 16.5864C18.372 16.4445 18.2671 16.2332 18.2671 15.9975C18.2671 15.7324 18.3995 15.4976 18.6031 15.3577C18.6689 15.3126 18.7115 15.2361 18.7115 15.1501C18.7115 15.1216 18.7071 15.0942 18.6991 15.0687L17.9533 12.9553C17.9329 12.8935 17.8751 12.8494 17.8067 12.8494C17.7382 12.8494 17.6804 12.8935 17.66 12.9553L16.9151 15.0687C16.9063 15.0942 16.9018 15.1216 16.9018 15.1501C16.9018 15.2361 16.9445 15.3126 17.0102 15.3577C17.2129 15.4976 17.3462 15.7324 17.3462 15.9975C17.3462 16.2332 17.2414 16.4445 17.0751 16.5864C16.6538 16.948 16.3871 17.4848 16.3871 18.0837V18.8374L12.6752 16.6942L12.2157 17.4901L16.3871 19.8983V20.4776L15.8858 20.7663L11.7144 18.3584L11.2557 19.1545L14.9667 21.2973L14.3143 21.6739C13.7952 21.9731 13.4645 22.4727 13.3614 23.019C13.3214 23.2334 13.1917 23.431 12.9873 23.548C12.757 23.6805 12.4886 23.6824 12.2655 23.5771C12.1926 23.5424 12.1055 23.5431 12.0317 23.5856C12.0068 23.6 11.9846 23.618 11.9677 23.6382L10.5099 25.34C10.4664 25.3887 10.4575 25.4607 10.4913 25.5208C10.526 25.5793 10.5926 25.6078 10.6566 25.5957L12.8592 25.1831C12.8859 25.1778 12.9126 25.1683 12.9366 25.1543C13.0112 25.1108 13.0548 25.036 13.0619 24.9555C13.0815 24.7103 13.2184 24.4775 13.4477 24.3451C13.6512 24.2281 13.8868 24.213 14.0939 24.2852C14.6174 24.4697 15.2156 24.4327 15.7347 24.1326L16.3871 23.7566V28.0422H17.3062V23.2256L17.8075 22.9363L18.3089 23.2256V28.0418H19.228V23.7563L19.8804 24.1323C20.3995 24.4324 20.9977 24.4693 21.5221 24.285C21.7274 24.2124 21.963 24.2274 22.1674 24.3448C22.3968 24.4771 22.5336 24.7099 22.5532 24.9552C22.5594 25.0356 22.6038 25.1108 22.6776 25.1539C22.7025 25.1681 22.7292 25.1775 22.7549 25.1827L24.9576 25.5953C25.0216 25.6074 25.0891 25.579 25.1229 25.5205C25.1557 25.4607 25.1469 25.389 25.1042 25.3407ZM16.3862 22.6957L15.1614 23.4025C14.9214 23.5412 14.6147 23.4588 14.477 23.2191C14.3383 22.9788 14.4201 22.6725 14.6601 22.5338L15.8858 21.8266L16.3871 22.1163L16.3862 22.6957ZM17.3053 17.9536C17.3053 17.6764 17.5293 17.4518 17.8067 17.4518C18.0831 17.4518 18.308 17.6764 18.308 17.9536V19.3677L17.8067 19.6567L17.3053 19.3677V17.9536ZM18.3826 21.6298L17.8067 21.9623L17.2298 21.6295V20.9635L17.8067 20.6303L18.3826 20.9635V21.6298ZM21.1363 23.2194C20.9977 23.4588 20.691 23.5412 20.451 23.4029L19.2262 22.6953V22.1167L19.7275 21.827L20.9524 22.5342C21.1923 22.6728 21.2741 22.9788 21.1363 23.2194Z" fill="white"/>
<path d="M84.6627 19.2593H81.3118V12.5594H78.2505V30.0383H81.3118V22.3625H84.6627V30.0383H87.7907V12.5594H84.6627V19.2593Z" fill="white"/>
<path d="M30.0811 12.5594L33.4792 23.2771V30.0383H36.8791V22.9298L40.4008 12.5594H37.5395L35.2276 19.369L33.1352 12.5594H30.0811Z" fill="white"/>
<path d="M59.6067 12.5594L58.1401 20.874L56.4396 12.5594H51.6611V30.0383H54.4015V16.8627L56.7401 28.3166H59.2991L61.3737 16.6767V30.0383H64.587V12.5594H59.6067Z" fill="white"/>
<path d="M97.1153 12.5594H92.3812L89.1875 30.0383H92.0194L92.6977 25.9711H96.2211L96.878 30.0383H99.9996L97.1153 12.5594ZM93.1829 23.0574L94.486 15.2401L95.75 23.0574H93.1829Z" fill="white"/>
<path d="M69.1818 12.5594L65.9863 30.0383H68.82L69.4973 25.9711H73.0208L73.6785 30.0383H76.7993L73.915 12.5594H69.1818ZM69.9826 23.0574L71.2857 15.2401L72.5497 23.0574H69.9826Z" fill="white"/>
<path d="M42.5925 12.5594L39.397 30.0383H42.2307L42.9089 25.9711H46.4314L47.0892 30.0383H50.2091L47.3256 12.5594H42.5925ZM43.3942 23.0574L44.6964 15.2401L45.9603 23.0574H43.3942Z" fill="white"/>
</g>
</g>
</svg>
