<?xml version="1.0" encoding="utf-8"?>
<!-- Generator: Adobe Illustrator 19.0.0, SVG Export Plug-In . SVG Version: 6.00 Build 0)  -->
<svg version="1.1" id="Layer_1" xmlns="http://www.w3.org/2000/svg" xmlns:xlink="http://www.w3.org/1999/xlink" x="0px" y="0px"
	 viewBox="5 -6 20 22" style="enable-background:new 5 -6 20 22;" xml:space="preserve">
<style type="text/css">
	.st0{fill:#FFFFFF;}
</style>
<path class="st0" d="M19.1,1.4l-1.7-0.1L17,11.3l1.7,0.1L19.1,1.4z"/>
<rect x="14.2" y="1.4" class="st0" width="1.7" height="9.9"/>
<path class="st0" d="M13,11.3l-0.4-9.9l-1.7,0.1l0.4,9.9L13,11.3z"/>
<path class="st0" d="M5-1.1v-1.7h20v1.7h-1.8l-1.4,15.8c0,0.4-0.4,0.8-0.8,0.8H9c-0.4,0-0.8-0.3-0.8-0.8L6.8-1.1H5z M9.8,13.7h10.5
	l1.3-14.9H8.4L9.8,13.7z"/>
<path class="st0" d="M17.7-6h-5.5c-0.8,0-1.4,0.6-1.4,1.4v2.7h1.7v-2.4h4.9v2.4h1.7v-2.7C19.1-5.4,18.5-6,17.7-6z"/>
</svg>
