<svg width="155" height="36" viewBox="0 0 155 36" fill="none" xmlns="http://www.w3.org/2000/svg">
<g clip-path="url(#clip0_133_29636)">
<path d="M6.41659 14.5718C7.14518 11.1534 7.85637 7.83 8.55923 4.50505C8.67776 4.01659 8.75866 3.51996 8.80126 3.01939C8.84669 2.31964 8.62844 1.62805 8.18883 1.07822C7.74918 0.528384 7.11926 0.159288 6.42074 0.0422417C5.7068 -0.0946828 4.96705 0.0498011 4.35917 0.444866C3.75129 0.839928 3.32335 1.45434 3.16654 2.15715C2.09978 7.00717 1.05129 11.8621 0.0674142 16.7293C-0.327131 18.6802 1.04714 20.1372 3.22128 20.1979C7.72789 20.3243 12.2345 20.444 16.7419 20.5056C17.6253 20.5453 18.5072 20.3973 19.328 20.0716C19.856 19.7834 20.2708 19.3279 20.5058 18.7783C20.7407 18.2287 20.7822 17.6169 20.6235 17.0411C20.473 16.4165 20.1127 15.8611 19.6017 15.4656C19.0906 15.07 18.459 14.8578 17.8103 14.8639C14.8861 14.7745 11.9609 14.7203 9.03584 14.6481C8.17876 14.6276 7.32089 14.5981 6.41659 14.5718Z" fill="#00E9FF"/>
<path d="M16.4585 9.49343C12.9283 9.49343 9.49598 9.49343 6.0644 9.48112C5.55707 9.4945 5.04942 9.4698 4.54587 9.40721C3.84453 9.30655 3.20586 8.95207 2.75329 8.41235C2.30072 7.87256 2.06643 7.18591 2.09571 6.48512C2.10843 5.76549 2.40462 5.07921 2.92115 4.57259C3.43767 4.06597 4.13368 3.77904 4.86084 3.77295C9.87553 3.74588 14.8903 3.73684 19.9067 3.79263C21.9167 3.81478 23.0722 5.44735 22.6809 7.56636C21.8711 11.9554 21.0563 16.3442 20.1827 20.7209C20.0386 21.5844 19.7092 22.4074 19.217 23.1345C18.8228 23.5862 18.2866 23.8936 17.6947 24.0073C17.1026 24.1209 16.4891 24.0343 15.9529 23.7612C15.3668 23.486 14.8924 23.0221 14.6074 22.4454C14.3224 21.8687 14.2435 21.2132 14.3838 20.5864C14.9018 17.7364 15.4539 14.8931 15.9894 12.0464C16.1485 11.2113 16.2977 10.3745 16.4585 9.49343Z" fill="#4179FF"/>
<mask id="mask0_133_29636" style="mask-type:luminance" maskUnits="userSpaceOnUse" x="13" y="13" width="9" height="8">
<path d="M15.4454 13.8981L13.7661 20.9573L20.1576 20.968L21.6843 14.7857L15.4454 13.8981Z" fill="white"/>
</mask>
<g mask="url(#mask0_133_29636)">
<path d="M6.41659 14.5736C7.14518 11.1551 7.85637 7.83171 8.55923 4.50676C8.67776 4.0183 8.75866 3.52167 8.80126 3.0211C8.84669 2.32135 8.62844 1.62976 8.18883 1.07993C7.74918 0.530093 7.11926 0.160997 6.42074 0.0439505C5.7068 -0.0929736 4.96705 0.0515099 4.35917 0.446574C3.75129 0.841637 3.32335 1.45604 3.16654 2.15886C2.09978 7.00888 1.05129 11.8638 0.0674142 16.731C-0.327131 18.6819 1.04714 20.1389 3.22128 20.1996C7.72789 20.326 12.2345 20.4458 16.7419 20.5073C17.6253 20.547 18.5072 20.399 19.328 20.0733C19.856 19.7851 20.2708 19.3296 20.5058 18.78C20.7407 18.2304 20.7822 17.6186 20.6235 17.0428C20.473 16.4182 20.1127 15.8628 19.6017 15.4673C19.0906 15.0717 18.459 14.8595 17.8103 14.8656C14.8861 14.7762 11.9609 14.722 9.03584 14.6498C8.17876 14.6293 7.32089 14.5998 6.41659 14.5736Z" fill="#00E9FF"/>
</g>
<path d="M29.2551 8.24355H27.4316V5.47725H29.338V1.66992H32.7696V5.47725H35.9798V8.24355H32.7696V13.8861C32.7696 16.1831 34.5931 16.5162 35.5645 16.5162C35.778 16.5187 35.9912 16.5002 36.2011 16.4612V19.5015C35.8448 19.5586 35.4844 19.5861 35.1235 19.5835C33.1583 19.5835 29.2567 19.0093 29.2567 14.3249L29.2551 8.24355Z" fill="white"/>
<path d="M45.2484 10.6831H45.691V10.5772C45.691 8.57798 44.8887 7.83802 43.09 7.83802C42.4534 7.83802 41.2076 8.00208 41.2076 8.76995V9.50828H37.9418V8.03159C37.9418 5.4302 41.6502 5.15625 43.1174 5.15625C47.8221 5.15625 49.2055 7.59353 49.2055 10.7167V15.9203C49.1968 16.0015 49.2065 16.0836 49.234 16.1607C49.2614 16.2377 49.3059 16.3077 49.3643 16.3655C49.4226 16.4233 49.4932 16.4675 49.5711 16.4948C49.6488 16.522 49.7318 16.5318 49.8139 16.5233H50.9204V19.4544H47.7657C46.4652 19.4544 45.967 18.7424 45.967 17.9203C45.967 17.5643 45.9945 17.3182 45.9945 17.3182H45.9388C45.5386 18.087 44.9251 18.7269 44.1704 19.1629C43.4156 19.5987 42.5509 19.8126 41.6776 19.7793C39.1595 19.7793 36.8618 18.2206 36.8618 15.424C36.8635 11.0391 42.9516 10.6831 45.2484 10.6831ZM42.5364 17.0647C44.4179 17.0647 45.7466 15.0958 45.7466 13.3952V13.067H45.1374C43.3139 13.067 40.4053 13.3132 40.4053 15.2582C40.411 15.5204 40.4726 15.7783 40.5859 16.0153C40.6992 16.2522 40.8618 16.4629 41.063 16.6333C41.2642 16.8038 41.4996 16.9305 41.7536 17.0048C42.0076 17.0791 42.2738 17.0995 42.5364 17.0647Z" fill="white"/>
<path d="M57.4801 5.14978C60.7459 5.14978 61.8251 7.11863 61.8251 7.11863H61.8806V6.76177C61.8806 6.13173 62.3232 5.47464 63.4306 5.47464H66.6956V8.43289H65.6181C65.5404 8.42296 65.4615 8.42985 65.3868 8.45315C65.3122 8.47637 65.2436 8.51542 65.1858 8.56751C65.1278 8.61969 65.0821 8.68367 65.0516 8.75505C65.0212 8.82642 65.007 8.90345 65.0097 8.98089V18.5948C65.0097 23.3882 61.2457 25.1955 57.5655 25.1955C55.8241 25.1827 54.1096 24.7702 52.5566 23.9904L53.6342 21.2512C54.8488 21.8449 56.182 22.1629 57.5365 22.1823C59.6676 22.1823 61.5218 21.2799 61.5218 18.758V18.1018C61.5218 17.7736 61.5499 17.3634 61.5499 17.3634H61.4943C61.054 17.976 60.4601 18.4645 59.771 18.7809C59.082 19.0974 58.3216 19.2309 57.5646 19.1682C53.5239 19.1682 51.2271 15.9368 51.2271 12.1016C51.2271 8.26635 53.412 5.14978 57.4801 5.14978ZM61.6038 12.1344C61.6038 8.9571 59.9983 8.10804 58.0894 8.10804C55.9592 8.10804 54.7962 9.64211 54.7962 11.9974C54.7962 14.4347 56.0395 16.2428 58.3115 16.2428C59.9982 16.2428 61.6038 15.2846 61.6038 12.1352V12.1344Z" fill="white"/>
<path d="M74.2233 5.14978C78.2633 5.14978 80.4772 8.08097 80.4772 11.7784C80.4772 12.1885 80.3943 13.0655 80.3943 13.0655H70.6534C70.723 14.1148 71.2053 15.0953 71.9968 15.7967C72.7882 16.4982 73.826 16.8647 74.8873 16.8179C76.3475 16.7597 77.7437 16.2098 78.8452 15.2592L80.3114 17.6702C78.7425 19.0325 76.7257 19.7824 74.6386 19.7794C73.6464 19.8273 72.6548 19.6724 71.7258 19.3244C70.7968 18.9763 69.9501 18.4425 69.2386 17.7563C68.5272 17.0701 67.9664 16.2462 67.5908 15.336C67.2153 14.4258 67.0332 13.4487 67.0561 12.4658C67.0561 8.16297 69.9894 5.14978 74.2233 5.14978ZM76.8799 10.6553C76.8946 10.2969 76.8374 9.93917 76.7115 9.6029C76.5856 9.26655 76.3936 8.95825 76.1465 8.6959C75.8995 8.43346 75.6023 8.22222 75.2722 8.0743C74.9421 7.92635 74.5855 7.84466 74.2233 7.834C73.3983 7.80531 72.591 8.07635 71.9539 8.59606C71.3167 9.11576 70.8936 9.84819 70.7645 10.6553H76.8799Z" fill="white"/>
<path d="M82.7739 9.03762C82.785 8.95583 82.7769 8.87265 82.7502 8.79447C82.7234 8.71637 82.6789 8.64541 82.6199 8.58708C82.5609 8.52875 82.4892 8.48461 82.4103 8.4582C82.3313 8.4317 82.2473 8.42366 82.1647 8.43465H81.0581V5.47637H84.2959C85.5393 5.47637 86.1501 6.05064 86.1501 7.03509V7.44527C86.1501 7.74635 86.122 8.04823 86.122 8.04823H86.1775C86.5994 7.19886 87.2476 6.47962 88.0524 5.96802C88.8573 5.4564 89.7873 5.17182 90.7438 5.14494C91.6622 5.07016 92.5789 5.31707 93.3324 5.84259C94.0858 6.3681 94.6287 7.13886 94.8674 8.02034H94.923C95.3855 7.15306 96.0784 6.42709 96.9272 5.92045C97.7751 5.41381 98.7474 5.14567 99.7388 5.14494C102.672 5.14494 104.361 6.78567 104.361 10.4585V15.909C104.351 15.9903 104.361 16.0724 104.389 16.1494C104.416 16.2264 104.461 16.2964 104.519 16.3542C104.578 16.412 104.648 16.4562 104.726 16.4835C104.804 16.5108 104.887 16.5205 104.969 16.512H106.047V19.4432H102.726C101.4 19.4432 100.844 18.8952 100.844 17.5801V11.1156C100.844 9.52656 100.539 8.32226 98.9066 8.32226C97.1659 8.32226 95.9185 9.77432 95.5305 11.5266C95.3681 12.106 95.2935 12.7059 95.3092 13.3068V19.4424H91.7948V11.1156C91.7948 9.60942 91.5735 8.32226 89.8884 8.32226C88.1171 8.32226 86.9268 9.77432 86.4842 11.5545C86.3375 12.1275 86.2629 12.7164 86.2629 13.3076V19.4432H82.7755L82.7739 9.03762Z" fill="white"/>
<path d="M107.65 3.55713C107.661 3.47543 107.652 3.39232 107.626 3.31428C107.598 3.23624 107.555 3.16537 107.496 3.10714C107.436 3.0489 107.365 3.00484 107.286 2.97845C107.207 2.95206 107.123 2.94405 107.041 2.95497H105.934V-0.0032959H109.283C110.583 -0.0032959 111.164 0.570978 111.164 1.85895V5.91238C111.164 6.59739 111.11 7.08961 111.11 7.08961H111.164C111.657 6.4503 112.302 5.93933 113.038 5.60064C113.776 5.26195 114.586 5.10569 115.398 5.14534C119.218 5.14534 121.653 8.13067 121.653 12.4581C121.653 16.8955 118.913 19.7717 115.177 19.7717C114.367 19.8026 113.562 19.6399 112.83 19.2971C112.098 18.9544 111.459 18.4417 110.97 17.8028H110.915C110.953 18.1117 110.972 18.4227 110.97 18.7339V19.446H107.65V3.55713ZM114.568 16.8413C116.475 16.8413 118.111 15.2826 118.111 12.5139C118.111 9.85754 116.672 8.1315 114.597 8.1315C112.773 8.1315 111.055 9.44408 111.055 12.5418C111.054 14.7084 112.216 16.8471 114.568 16.8471V16.8413Z" fill="white"/>
<path d="M129.514 5.14978C133.554 5.14978 135.768 8.08097 135.768 11.7784C135.768 12.1885 135.685 13.0655 135.685 13.0655H125.949C126.019 14.1148 126.501 15.0953 127.292 15.7967C128.084 16.4982 129.122 16.8647 130.183 16.8179C131.643 16.7596 133.04 16.2097 134.141 15.2592L135.607 17.6702C134.038 19.0324 132.022 19.7823 129.935 19.7794C128.942 19.8273 127.95 19.6724 127.022 19.3244C126.093 18.9763 125.246 18.4425 124.534 17.7563C123.823 17.0701 123.262 16.2462 122.887 15.336C122.511 14.4258 122.329 13.4487 122.352 12.4658C122.349 8.16297 125.286 5.14978 129.514 5.14978ZM132.17 10.6553C132.185 10.2969 132.127 9.93917 132.002 9.6029C131.876 9.26655 131.684 8.95825 131.437 8.6959C131.19 8.43346 130.892 8.22222 130.562 8.0743C130.232 7.92635 129.876 7.84466 129.514 7.834C128.688 7.80549 127.881 8.07663 127.244 8.59631C126.607 9.11593 126.184 9.84827 126.055 10.6553H132.17Z" fill="white"/>
<path d="M143.077 5.1502C146.149 5.1502 147.145 6.84837 147.145 6.84837H147.2C147.2 6.84837 147.172 6.49233 147.172 6.028V3.5669C147.183 3.48524 147.174 3.40214 147.148 3.3241C147.121 3.24605 147.077 3.17516 147.018 3.1169C146.959 3.05864 146.888 3.01461 146.809 2.98822C146.73 2.96183 146.646 2.95378 146.563 2.96474H145.456V0.00646973H148.805C150.105 0.00646973 150.687 0.580744 150.687 1.86872V15.92C150.678 16.0012 150.688 16.0833 150.715 16.1604C150.743 16.2374 150.787 16.3074 150.845 16.3652C150.904 16.423 150.975 16.4672 151.053 16.4944C151.131 16.5217 151.213 16.5315 151.296 16.523H152.373V19.4542H149.135C147.862 19.4542 147.395 18.8512 147.395 18.03V17.5041H147.339C146.881 18.2403 146.229 18.8402 145.455 19.2404C144.68 19.6407 143.811 19.8265 142.939 19.7782C139.119 19.7782 136.657 16.7929 136.657 12.4646C136.657 8.02561 139.341 5.1502 143.077 5.1502ZM147.256 12.4359C147.256 10.2718 146.121 8.13551 143.769 8.13551C141.831 8.13551 140.226 9.69422 140.226 12.463C140.226 15.1201 141.635 16.8454 143.713 16.8454C145.541 16.8478 147.256 15.5303 147.256 12.4359Z" fill="white"/>
<path d="M102.6 34.0069C102.509 34.0069 102.472 33.9516 102.509 33.8685L103.141 32.2722L101.417 27.8892C101.381 27.7877 101.417 27.7323 101.518 27.7323H102.105C102.178 27.7323 102.224 27.7692 102.252 27.8431L103.554 31.3125L104.857 27.8431C104.884 27.7692 104.939 27.7323 105.013 27.7323H105.59C105.691 27.7323 105.737 27.7877 105.7 27.8892L103.325 33.8962C103.298 33.97 103.242 34.0069 103.169 34.0069H102.6Z" fill="white"/>
<path d="M98.6721 32.3639C97.9023 32.3639 97.3425 32.0132 97.0122 31.4503L96.9942 32.1239C96.9942 32.207 96.9576 32.2531 96.8749 32.2531H96.3431C96.2605 32.2531 96.2144 32.207 96.2144 32.1239V25.7847C96.2144 25.7017 96.2605 25.6555 96.3431 25.6555H96.921C97.0037 25.6555 97.0488 25.7017 97.0488 25.7847V28.4976C97.37 27.9531 97.9299 27.621 98.6721 27.621C99.9661 27.621 100.865 28.6451 100.865 29.9923C100.865 31.3488 99.9661 32.3639 98.6721 32.3639ZM97.0303 30.0016C97.0303 30.9612 97.6447 31.5979 98.5262 31.5979C99.4153 31.5979 100.057 30.952 100.057 29.9923C100.057 29.042 99.4153 28.3868 98.5262 28.3868C97.6447 28.3868 97.0303 29.042 97.0303 30.0016Z" fill="white"/>
<path d="M112.215 32.9614C111.45 32.9614 110.701 32.733 110.064 32.3049C109.427 31.877 108.931 31.2686 108.638 30.5569C108.345 29.8452 108.268 29.0621 108.418 28.3065C108.567 27.5508 108.936 26.8568 109.477 26.3121C110.019 25.7674 110.708 25.3964 111.46 25.2461C112.211 25.0958 112.989 25.1729 113.696 25.4678C114.404 25.7626 115.009 26.2618 115.434 26.9023C115.86 27.5429 116.087 28.2959 116.087 29.0663C116.085 30.0988 115.676 31.0886 114.951 31.8186C114.225 32.5487 113.241 32.9597 112.215 32.9614ZM112.215 25.4853C111.511 25.4853 110.823 25.6953 110.238 26.0888C109.652 26.4823 109.196 27.0416 108.926 27.696C108.657 28.3503 108.586 29.0703 108.724 29.765C108.862 30.4596 109.2 31.0977 109.698 31.5985C110.196 32.0994 110.83 32.4404 111.52 32.5786C112.211 32.7168 112.927 32.6458 113.577 32.3748C114.228 32.1038 114.784 31.6448 115.175 31.0559C115.566 30.4669 115.775 29.7746 115.775 29.0663C115.775 28.5961 115.682 28.1304 115.504 27.696C115.325 27.2615 115.062 26.8667 114.732 26.5341C114.401 26.2016 114.009 25.9379 113.577 25.7579C113.145 25.5779 112.682 25.4853 112.215 25.4853Z" fill="white"/>
<path fill-rule="evenodd" clip-rule="evenodd" d="M115.051 30.9772C115.426 30.4118 115.627 29.7471 115.627 29.0672C115.627 28.1556 115.266 27.2813 114.626 26.6367C113.985 25.992 113.116 25.6297 112.209 25.6294C111.533 25.6294 110.873 25.8311 110.311 26.2088C109.749 26.5866 109.311 27.1235 109.052 27.7516C108.794 28.3798 108.726 29.071 108.858 29.7379C108.99 30.4047 109.315 31.0174 109.793 31.4981C110.271 31.9789 110.88 32.3063 111.543 32.439C112.206 32.5716 112.893 32.5035 113.517 32.2434C114.142 31.9831 114.675 31.5425 115.051 30.9772ZM109.767 27.6674H114.663V29.2045H113.3L111.186 31.0777V29.2045H109.767V27.6674Z" fill="white"/>
<path d="M120.95 32.1565C120.995 32.2 121.03 32.2523 121.054 32.3101C121.077 32.368 121.088 32.4301 121.087 32.4926V32.5036C121.087 32.6276 121.037 32.7463 120.95 32.8341C120.909 32.8797 120.858 32.9159 120.801 32.9406C120.744 32.9653 120.683 32.9778 120.622 32.9774H120.211C120.019 32.9796 119.828 32.9427 119.65 32.8689C119.472 32.7951 119.311 32.6858 119.176 32.5476C119.038 32.4134 118.93 32.2523 118.856 32.0742C118.783 31.8961 118.746 31.7047 118.749 31.5119V28.3H118.223C118.1 28.2993 117.982 28.2498 117.895 28.1623C117.85 28.1199 117.815 28.0685 117.791 28.0116C117.768 27.9546 117.756 27.8934 117.757 27.8317V27.8207C117.758 27.695 117.807 27.5745 117.895 27.4846C117.936 27.4391 117.987 27.4029 118.044 27.3782C118.1 27.3535 118.162 27.341 118.223 27.3414H118.749V25.6941C118.75 25.5685 118.798 25.448 118.886 25.3581C118.928 25.314 118.98 25.2794 119.036 25.2567C119.093 25.2339 119.153 25.2234 119.214 25.2258H119.231C119.354 25.2245 119.471 25.272 119.559 25.3581C119.604 25.4018 119.639 25.4542 119.662 25.5119C119.685 25.5698 119.697 25.6317 119.696 25.6941V27.3193H119.734V27.3359H120.622C120.683 27.336 120.744 27.3488 120.801 27.3734C120.857 27.398 120.908 27.434 120.95 27.4791C120.994 27.5229 121.03 27.5752 121.053 27.633C121.077 27.6908 121.088 27.7527 121.087 27.8152V27.8262C121.087 27.9502 121.037 28.0689 120.95 28.1567C120.908 28.2016 120.857 28.237 120.8 28.2607C120.744 28.2844 120.683 28.2959 120.622 28.2945H119.734V28.3166H119.696V31.5009C119.695 31.5676 119.707 31.6339 119.733 31.6956C119.758 31.7572 119.796 31.8129 119.844 31.859C119.891 31.9081 119.947 31.9471 120.009 31.9736C120.071 32.0001 120.138 32.0136 120.205 32.0133H120.616C120.741 32.0195 120.859 32.0703 120.95 32.1565Z" fill="white"/>
<path d="M123.578 27.8577C123.24 27.8558 122.905 27.9214 122.593 28.0507C122.281 28.1798 121.997 28.3701 121.758 28.6104C121.519 28.8507 121.33 29.1363 121.201 29.4506C121.072 29.7649 121.008 30.1017 121.009 30.4415C121.009 31.8795 122.148 32.9538 123.578 32.9538C124.158 32.9538 124.646 32.816 125.084 32.4414C125.084 32.7334 125.368 32.9538 125.571 32.9538C125.639 32.9561 125.706 32.9444 125.769 32.9195C125.832 32.8945 125.889 32.8569 125.937 32.8088C125.984 32.7608 126.021 32.7034 126.046 32.6402C126.071 32.577 126.083 32.5093 126.081 32.4414V30.436C126.075 29.0036 125.007 27.8577 123.578 27.8577ZM123.578 31.9511C122.723 31.9511 122.001 31.301 122.001 30.436C122.006 30.017 122.175 29.6167 122.469 29.3204C122.763 29.0241 123.161 28.8551 123.578 28.8494C124.432 28.8494 125.084 29.5821 125.084 30.4415C125.084 31.301 124.432 31.9511 123.578 31.9511Z" fill="white"/>
<path d="M129.436 27.8577C128.76 27.8577 128.111 28.1282 127.632 28.6096C127.153 29.0911 126.885 29.7441 126.885 30.425C126.885 31.1059 127.153 31.759 127.632 32.2404C128.111 32.7219 128.76 32.9924 129.436 32.9924C129.994 32.9847 130.535 32.7996 130.98 32.4635V33.0254C130.973 33.375 130.85 33.712 130.629 33.9822C130.409 34.2524 130.104 34.4401 129.764 34.5151C129.425 34.5902 129.07 34.5482 128.758 34.3959C128.445 34.2436 128.192 33.9899 128.04 33.6755C127.979 33.5574 127.874 33.4678 127.749 33.4256C127.623 33.3835 127.486 33.3921 127.366 33.4496C127.306 33.4778 127.252 33.5179 127.208 33.5676C127.163 33.6172 127.128 33.6752 127.106 33.7384C127.085 33.8016 127.076 33.8686 127.079 33.9353C127.084 34.0021 127.101 34.0674 127.131 34.1273C127.34 34.5613 127.667 34.9268 128.074 35.1812C128.481 35.4357 128.952 35.5689 129.431 35.5652C130.107 35.5626 130.755 35.2912 131.233 34.8103C131.711 34.3294 131.98 33.678 131.983 32.9979V30.4305C131.977 29.0091 130.833 27.8577 129.436 27.8577ZM129.436 31.9731C129.131 31.9731 128.832 31.882 128.578 31.7113C128.324 31.5406 128.126 31.2979 128.01 31.0141C127.893 30.7302 127.862 30.4178 127.922 30.1164C127.981 29.815 128.129 29.5382 128.344 29.3209C128.56 29.1036 128.835 28.9557 129.135 28.8957C129.435 28.8358 129.745 28.8666 130.028 28.9841C130.309 29.1017 130.551 29.3009 130.72 29.5564C130.89 29.8119 130.98 30.1122 130.98 30.4195C130.979 30.8311 130.816 31.2254 130.527 31.5164C130.238 31.8075 129.846 31.9717 129.436 31.9731Z" fill="white"/>
<path d="M135.481 27.8577C134.805 27.8577 134.156 28.1282 133.677 28.6096C133.198 29.0911 132.93 29.7441 132.93 30.425C132.93 31.1059 133.198 31.759 133.677 32.2404C134.156 32.7219 134.805 32.9924 135.481 32.9924C136.039 32.9847 136.58 32.7996 137.025 32.4635V33.0254C137.018 33.375 136.895 33.712 136.674 33.9822C136.454 34.2524 136.149 34.4401 135.809 34.5151C135.47 34.5902 135.115 34.5482 134.803 34.3959C134.49 34.2436 134.237 33.9899 134.085 33.6755C134.024 33.5574 133.919 33.4678 133.794 33.4256C133.668 33.3835 133.531 33.3921 133.411 33.4496C133.351 33.4778 133.297 33.5179 133.252 33.5676C133.208 33.6172 133.173 33.6752 133.151 33.7384C133.13 33.8016 133.121 33.8686 133.124 33.9353C133.129 34.0021 133.146 34.0674 133.176 34.1273C133.385 34.5613 133.712 34.9268 134.119 35.1812C134.526 35.4357 134.997 35.5689 135.476 35.5652C136.152 35.5626 136.8 35.2912 137.278 34.8103C137.755 34.3294 138.025 33.678 138.028 32.9979V30.4305C138.022 29.0091 136.878 27.8577 135.481 27.8577ZM135.481 31.9731C135.176 31.9731 134.877 31.882 134.623 31.7113C134.369 31.5406 134.171 31.2979 134.055 31.0141C133.938 30.7302 133.907 30.4178 133.967 30.1164C134.026 29.815 134.174 29.5382 134.389 29.3209C134.605 29.1036 134.88 28.9557 135.18 28.8957C135.48 28.8358 135.79 28.8666 136.073 28.9841C136.354 29.1017 136.596 29.3009 136.765 29.5564C136.935 29.8119 137.025 30.1122 137.025 30.4195C137.024 30.8311 136.861 31.2254 136.572 31.5164C136.283 31.8075 135.891 31.9717 135.481 31.9731Z" fill="white"/>
<path d="M141.49 27.8032C140.934 27.8026 140.392 27.9844 139.947 28.321V25.7757C139.947 25.6413 139.894 25.5124 139.799 25.4174C139.705 25.3223 139.576 25.2689 139.443 25.2689C139.309 25.2689 139.181 25.3223 139.086 25.4174C138.992 25.5124 138.939 25.6413 138.939 25.7757V30.365C138.939 31.7643 140.084 32.9324 141.485 32.9324C141.821 32.9325 142.152 32.8662 142.462 32.7372C142.772 32.6082 143.053 32.4191 143.291 32.1807C143.527 31.9423 143.715 31.6592 143.843 31.3476C143.971 31.0361 144.037 30.7022 144.037 30.365C144.04 30.0278 143.977 29.6933 143.849 29.3811C143.723 29.069 143.535 28.7855 143.299 28.5469C143.061 28.3085 142.779 28.1199 142.469 27.9922C142.158 27.8645 141.826 27.8002 141.49 27.8032ZM141.49 31.9186C141.186 31.9186 140.887 31.8275 140.633 31.6568C140.379 31.4861 140.181 31.2434 140.064 30.9595C139.947 30.6756 139.917 30.3633 139.976 30.0619C140.036 29.7605 140.183 29.4837 140.399 29.2664C140.615 29.0492 140.89 28.9011 141.19 28.8412C141.489 28.7813 141.8 28.812 142.082 28.9297C142.364 29.0472 142.606 29.2464 142.775 29.5019C142.944 29.7574 143.035 30.0577 143.035 30.365C143.036 30.5691 142.995 30.7712 142.918 30.9599C142.841 31.1484 142.727 31.3197 142.583 31.4641C142.44 31.6084 142.27 31.7228 142.082 31.8008C141.895 31.8788 141.693 31.9188 141.49 31.9186Z" fill="white"/>
<path d="M147.246 27.8212C146.742 27.8212 146.249 27.9717 145.829 28.2538C145.409 28.536 145.082 28.9369 144.889 29.406C144.695 29.8751 144.645 30.3913 144.744 30.8894C144.842 31.3874 145.085 31.8449 145.442 32.2039C145.799 32.563 146.254 32.8074 146.749 32.9065C147.244 33.0056 147.757 32.9548 148.223 32.7604C148.689 32.5661 149.088 32.237 149.368 31.8148C149.649 31.3927 149.798 30.8963 149.798 30.3885C149.797 29.7079 149.529 29.0553 149.05 28.5739C148.571 28.0927 147.923 27.8219 147.246 27.8212ZM147.246 31.9366C146.941 31.9366 146.642 31.8455 146.389 31.6748C146.135 31.5041 145.936 31.2614 145.82 30.9776C145.703 30.6937 145.672 30.3813 145.732 30.0799C145.791 29.7785 145.938 29.5017 146.154 29.2844C146.37 29.0671 146.645 28.9192 146.945 28.8593C147.245 28.7993 147.555 28.8301 147.837 28.9476C148.12 29.0652 148.361 29.2644 148.531 29.5199C148.7 29.7754 148.791 30.0757 148.791 30.383C148.789 30.7946 148.626 31.1889 148.337 31.4799C148.047 31.771 147.656 31.9352 147.246 31.9366Z" fill="white"/>
<path d="M153 30.3885L154.342 28.6365C154.383 28.5834 154.413 28.5227 154.43 28.4579C154.447 28.3931 154.452 28.3255 154.443 28.259C154.435 28.1924 154.413 28.1284 154.38 28.0702C154.347 28.0121 154.302 27.9612 154.249 27.9204C154.198 27.8789 154.139 27.8483 154.075 27.8305C154.012 27.8127 153.946 27.808 153.881 27.8168C153.816 27.8256 153.754 27.8476 153.698 27.8815C153.641 27.9153 153.592 27.9605 153.554 28.014L152.365 29.5566L151.177 28.014C151.138 27.9607 151.088 27.9159 151.031 27.8823C150.974 27.8487 150.911 27.8268 150.846 27.8181C150.781 27.8093 150.714 27.8139 150.651 27.8315C150.587 27.849 150.528 27.8792 150.476 27.9204C150.423 27.9611 150.378 28.012 150.345 28.0701C150.312 28.1283 150.29 28.1924 150.281 28.2589C150.273 28.3255 150.277 28.3932 150.295 28.4579C150.312 28.5227 150.342 28.5834 150.383 28.6365L151.724 30.3885L150.383 32.1404C150.342 32.1925 150.312 32.2524 150.295 32.3163C150.277 32.3803 150.273 32.4471 150.281 32.5128C150.29 32.5786 150.312 32.6419 150.345 32.6991C150.378 32.7562 150.423 32.8061 150.476 32.8456C150.527 32.8873 150.586 32.9183 150.649 32.9367C150.713 32.9552 150.778 32.9607 150.844 32.953C150.909 32.9453 150.972 32.9245 151.03 32.8919C151.087 32.8593 151.137 32.8155 151.177 32.7631L152.365 31.2204L153.554 32.7631C153.601 32.8226 153.661 32.8709 153.729 32.9043C153.797 32.9377 153.872 32.9553 153.948 32.9559C154.058 32.9554 154.164 32.9164 154.249 32.8456C154.302 32.8061 154.347 32.7562 154.38 32.6991C154.413 32.6419 154.435 32.5786 154.444 32.5128C154.452 32.4471 154.448 32.3803 154.43 32.3163C154.413 32.2524 154.383 32.1925 154.342 32.1404L153 30.3885Z" fill="white"/>
</g>
<defs>
<clipPath id="clip0_133_29636">
<rect width="155" height="35.2759" fill="white"/>
</clipPath>
</defs>
</svg>
