<svg width="366" height="84" viewBox="0 0 366 84" fill="none" xmlns="http://www.w3.org/2000/svg">
<g clip-path="url(#clip0_239_3246)">
<path d="M15.1514 34.4085C16.8718 26.3365 18.5512 18.4891 20.2108 10.6379C20.4907 9.48449 20.6817 8.31179 20.7823 7.12979C20.8896 5.47748 20.3743 3.84444 19.3362 2.54614C18.2981 1.24782 16.8106 0.376272 15.1612 0.0998921C13.4754 -0.223426 11.7286 0.117742 10.2933 1.0506C8.85788 1.98346 7.84739 3.43426 7.47713 5.09381C4.95818 16.5461 2.4824 28.01 0.159185 39.503C-0.772452 44.1095 2.47259 47.55 7.60638 47.6933C18.2478 47.9917 28.8891 48.2745 39.5325 48.4198C41.6185 48.5135 43.7008 48.1641 45.639 47.395C46.8858 46.7145 47.8652 45.6388 48.42 44.3411C48.9747 43.0434 49.0728 41.5987 48.6982 40.2391C48.3427 38.7643 47.4919 37.4527 46.2853 36.5188C45.0785 35.5847 43.5871 35.0838 42.0554 35.0981C35.1503 34.887 28.2433 34.7591 21.3362 34.5887C19.3124 34.5402 17.2867 34.4705 15.1514 34.4085Z" fill="#00E9FF"/>
<path d="M38.8628 22.4167C30.527 22.4167 22.4224 22.4167 14.3194 22.3876C13.1214 22.4192 11.9227 22.3609 10.7337 22.2131C9.07764 21.9754 7.56955 21.1384 6.5009 19.8639C5.43226 18.5893 4.87901 16.968 4.94816 15.3132C4.97821 13.6139 5.6776 11.9934 6.89726 10.7972C8.11692 9.60086 9.7604 8.92335 11.4774 8.90896C23.3186 8.84503 35.1599 8.82371 47.005 8.95543C51.7513 9.00773 54.4796 12.8627 53.5558 17.8663C51.6436 28.23 49.7197 38.5934 47.6568 48.928C47.3164 50.9671 46.5388 52.9104 45.3764 54.6273C44.4458 55.6938 43.1796 56.4197 41.7818 56.6882C40.3838 56.9565 38.9352 56.7519 37.6691 56.107C36.2849 55.4573 35.1648 54.3619 34.4919 53.0001C33.8189 51.6383 33.6327 50.0905 33.9639 48.6103C35.1871 41.8808 36.4908 35.1669 37.7552 28.445C38.131 26.473 38.4831 24.4972 38.8628 22.4167Z" fill="#4179FF"/>
<mask id="mask0_239_3246" style="mask-type:luminance" maskUnits="userSpaceOnUse" x="32" y="32" width="20" height="18">
<path d="M36.4717 32.8174L32.5063 49.4864L47.5985 49.5116L51.2035 34.9134L36.4717 32.8174Z" fill="white"/>
</mask>
<g mask="url(#mask0_239_3246)">
<path d="M15.1514 34.4123C16.8718 26.3403 18.5512 18.4928 20.2108 10.6417C20.4907 9.48828 20.6817 8.31558 20.7823 7.13358C20.8896 5.48127 20.3743 3.84823 19.3362 2.54992C18.2981 1.2516 16.8106 0.380057 15.1612 0.103676C13.4754 -0.219642 11.7286 0.121526 10.2933 1.05439C8.85788 1.98725 7.84739 3.43804 7.47713 5.0976C4.95818 16.5499 2.4824 28.0138 0.159185 39.5067C-0.772452 44.1132 2.47259 47.5538 7.60638 47.6971C18.2478 47.9954 28.8891 48.2783 39.5325 48.4235C41.6185 48.5173 43.7008 48.1679 45.639 47.3988C46.8858 46.7183 47.8652 45.6426 48.42 44.3449C48.9747 43.0472 49.0728 41.6025 48.6982 40.2429C48.3427 38.7681 47.4919 37.4565 46.2853 36.5226C45.0785 35.5885 43.5871 35.0876 42.0554 35.1019C35.1503 34.8908 28.2433 34.7629 21.3362 34.5924C19.3124 34.544 17.2867 34.4743 15.1514 34.4123Z" fill="#00E9FF"/>
</g>
<path d="M69.0796 19.4654H64.7739V12.9333H69.2753V3.94312H77.3784V12.9333H84.9585V19.4654H77.3784V32.7889C77.3784 38.2129 81.6841 38.9994 83.978 38.9994C84.4821 39.0054 84.9855 38.9618 85.4811 38.8696V46.0486C84.6399 46.1834 83.7889 46.2483 82.9367 46.2423C78.2962 46.2423 69.0835 44.8863 69.0835 33.8253L69.0796 19.4654Z" fill="#1E2531"/>
<path d="M106.845 25.2258H107.89V24.9759C107.89 20.2551 105.995 18.5079 101.748 18.5079C100.245 18.5079 97.3032 18.8952 97.3032 20.7084V22.4518H89.5918V18.9649C89.5918 12.8223 98.3484 12.1754 101.813 12.1754C112.922 12.1754 116.188 17.9305 116.188 25.3052V37.5924C116.168 37.7842 116.191 37.9781 116.256 38.16C116.321 38.3419 116.426 38.5071 116.563 38.6437C116.701 38.7801 116.868 38.8845 117.052 38.949C117.235 39.0133 117.431 39.0364 117.625 39.0162H120.238V45.9376H112.789C109.718 45.9376 108.542 44.2562 108.542 42.3151C108.542 41.4744 108.606 40.8933 108.606 40.8933H108.475C107.53 42.7088 106.081 44.2197 104.299 45.2491C102.517 46.2783 100.475 46.7833 98.413 46.7047C92.4669 46.7047 87.0415 43.0241 87.0415 36.4205C87.0454 26.0665 101.421 25.2258 106.845 25.2258ZM100.441 40.2947C104.884 40.2947 108.021 35.6456 108.021 31.6299V30.8551H106.583C102.277 30.8551 95.4086 31.4362 95.4086 36.0292C95.4221 36.6481 95.5675 37.2571 95.8351 37.8167C96.1026 38.3762 96.4867 38.8736 96.9617 39.2762C97.4369 39.6787 97.9925 39.9778 98.5924 40.1533C99.1921 40.3288 99.8208 40.3769 100.441 40.2947Z" fill="#1E2531"/>
<path d="M135.728 12.1599C143.439 12.1599 145.987 16.8089 145.987 16.8089H146.119V15.9663C146.119 14.4786 147.164 12.927 149.779 12.927H157.488V19.9123H154.944C154.76 19.8888 154.574 19.9051 154.398 19.9601C154.222 20.0149 154.06 20.1072 153.923 20.2302C153.786 20.3534 153.678 20.5045 153.606 20.673C153.534 20.8415 153.501 21.0234 153.507 21.2063V43.9075C153.507 55.2261 144.619 59.4936 135.929 59.4936C131.817 59.4634 127.769 58.4894 124.102 56.648L126.646 50.1799C129.514 51.5818 132.662 52.3328 135.861 52.3786C140.893 52.3786 145.271 50.2477 145.271 44.293V42.7433C145.271 41.9684 145.338 40.9999 145.338 40.9999H145.206C144.167 42.4463 142.764 43.5999 141.137 44.347C139.51 45.0944 137.715 45.4095 135.927 45.2616C126.386 45.2616 120.962 37.6312 120.962 28.5751C120.962 19.519 126.122 12.1599 135.728 12.1599ZM145.465 28.6526C145.465 21.1501 141.674 19.1452 137.166 19.1452C132.136 19.1452 129.39 22.7676 129.39 28.3291C129.39 34.0843 132.326 38.3538 137.691 38.3538C141.674 38.3538 145.465 36.0912 145.465 28.6545V28.6526Z" fill="#1E2531"/>
<path d="M175.262 12.1599C184.802 12.1599 190.03 19.0813 190.03 27.8119C190.03 28.7805 189.834 30.8512 189.834 30.8512H166.833C166.997 33.3288 168.136 35.6441 170.005 37.3003C171.874 38.9568 174.324 39.8223 176.83 39.7117C180.278 39.5743 183.575 38.2759 186.176 36.0311L189.638 41.7244C185.933 44.941 181.171 46.7117 176.243 46.7047C173.9 46.8178 171.559 46.4521 169.365 45.6302C167.171 44.8083 165.172 43.548 163.492 41.9276C161.812 40.3073 160.488 38.3619 159.601 36.2125C158.714 34.0632 158.284 31.7561 158.339 29.4352C158.339 19.2749 165.265 12.1599 175.262 12.1599ZM181.535 25.16C181.57 24.3138 181.435 23.469 181.138 22.675C180.84 21.8808 180.387 21.1528 179.804 20.5333C179.22 19.9136 178.519 19.4148 177.739 19.0655C176.959 18.7162 176.118 18.5233 175.262 18.4981C173.314 18.4304 171.408 19.0704 169.904 20.2976C168.399 21.5247 167.4 23.2542 167.095 25.16H181.535Z" fill="#1E2531"/>
<path d="M195.453 21.3404C195.479 21.1472 195.46 20.9508 195.397 20.7662C195.334 20.5818 195.229 20.4142 195.089 20.2765C194.95 20.1388 194.781 20.0346 194.594 19.9722C194.408 19.9096 194.209 19.8906 194.014 19.9166H191.401V12.9312H199.047C201.983 12.9312 203.425 14.2872 203.425 16.6118V17.5804C203.425 18.2913 203.359 19.0041 203.359 19.0041H203.49C204.486 16.9985 206.017 15.3002 207.917 14.0921C209.817 12.8841 212.013 12.2121 214.272 12.1486C216.441 11.9721 218.605 12.5551 220.384 13.796C222.164 15.0369 223.446 16.8568 224.009 18.9383H224.14C225.232 16.8904 226.869 15.1761 228.873 13.9798C230.875 12.7835 233.171 12.1503 235.512 12.1486C242.438 12.1486 246.425 16.0229 246.425 24.6955V37.5658C246.404 37.7575 246.427 37.9515 246.492 38.1333C246.556 38.3152 246.662 38.4805 246.799 38.6171C246.938 38.7534 247.104 38.8578 247.288 38.9223C247.472 38.9867 247.668 39.0097 247.862 38.9896H250.406V45.9109H242.566C239.434 45.9109 238.121 44.6169 238.121 41.5117V26.2471C238.121 22.4949 237.402 19.6512 233.547 19.6512C229.437 19.6512 226.491 23.0799 225.575 27.2176C225.191 28.5856 225.015 30.0022 225.052 31.4212V45.909H216.754V26.2471C216.754 22.6906 216.231 19.6512 212.252 19.6512C208.07 19.6512 205.259 23.0799 204.214 27.2835C203.867 28.6366 203.691 30.027 203.691 31.4231V45.9109H195.457L195.453 21.3404Z" fill="#1E2531"/>
<path d="M254.193 8.39938C254.218 8.20646 254.199 8.01023 254.136 7.82595C254.072 7.64167 253.968 7.47432 253.829 7.33682C253.688 7.19931 253.52 7.09526 253.334 7.03297C253.148 6.97065 252.948 6.95172 252.754 6.97751H250.142V-0.0078125H258.049C261.12 -0.0078125 262.492 1.34822 262.492 4.3895V13.9608C262.492 15.5783 262.362 16.7406 262.362 16.7406H262.492C263.656 15.231 265.177 14.0245 266.917 13.2247C268.659 12.425 270.571 12.056 272.489 12.1496C281.508 12.1496 287.258 19.1988 287.258 29.4172C287.258 39.8951 280.79 46.6867 271.967 46.6867C270.054 46.7597 268.154 46.3754 266.424 45.5661C264.695 44.7567 263.188 43.5462 262.034 42.0376H261.903C261.993 42.7669 262.038 43.5013 262.034 44.2362V45.9177H254.193V8.39938ZM270.53 39.7673C275.032 39.7673 278.895 36.0867 278.895 29.5489C278.895 23.2765 275.497 19.2008 270.596 19.2008C266.291 19.2008 262.233 22.3002 262.233 29.6148C262.231 34.7307 264.975 39.7808 270.53 39.7808V39.7673Z" fill="#1E2531"/>
<path d="M305.819 12.1599C315.361 12.1599 320.588 19.0813 320.588 27.8119C320.588 28.7805 320.393 30.8512 320.393 30.8512H297.403C297.568 33.3288 298.707 35.6441 300.574 37.3003C302.443 38.9568 304.894 39.8223 307.401 39.7117C310.847 39.5739 314.145 38.2755 316.746 36.0311L320.209 41.7244C316.504 44.9408 311.742 46.7115 306.814 46.7047C304.471 46.8178 302.128 46.4521 299.936 45.6302C297.742 44.8083 295.742 43.548 294.062 41.9276C292.383 40.3073 291.058 38.3619 290.171 36.2125C289.285 34.0632 288.854 31.7561 288.909 29.4352C288.901 19.2749 295.837 12.1599 305.819 12.1599ZM312.092 25.16C312.127 24.3138 311.99 23.469 311.695 22.675C311.397 21.8808 310.943 21.1528 310.36 20.5333C309.777 19.9136 309.074 19.4148 308.295 19.0655C307.516 18.7162 306.675 18.5233 305.819 18.4981C303.87 18.4308 301.964 19.071 300.46 20.2982C298.955 21.5251 297.957 23.2544 297.652 25.16H312.092Z" fill="#1E2531"/>
<path d="M337.847 12.1611C345.101 12.1611 347.451 16.171 347.451 16.171H347.582C347.582 16.171 347.516 15.3303 347.516 14.2338V8.42246C347.541 8.22964 347.522 8.03342 347.459 7.84914C347.396 7.66485 347.291 7.49746 347.152 7.35988C347.013 7.22233 346.844 7.11834 346.659 7.05603C346.473 6.99373 346.273 6.97472 346.079 7.00059H343.464V0.0152588H351.372C354.442 0.0152588 355.816 1.37129 355.816 4.41258V37.5917C355.795 37.7835 355.818 37.9774 355.883 38.1593C355.948 38.3412 356.053 38.5064 356.19 38.643C356.329 38.7794 356.496 38.8838 356.68 38.9481C356.863 39.0126 357.059 39.0357 357.253 39.0155H359.797V45.9369H352.152C349.146 45.9369 348.042 44.5131 348.042 42.574V41.3323H347.911C346.829 43.0705 345.29 44.4871 343.462 45.4323C341.632 46.3774 339.579 46.8161 337.52 46.7021C328.501 46.7021 322.687 39.6528 322.687 29.4325C322.687 18.9508 329.026 12.1611 337.847 12.1611ZM347.713 29.3647C347.713 24.2546 345.034 19.2103 339.479 19.2103C334.905 19.2103 331.114 22.8909 331.114 29.4287C331.114 35.703 334.442 39.7768 339.348 39.7768C343.664 39.7826 347.713 36.6716 347.713 29.3647Z" fill="#1E2531"/>
<path d="M242.269 80.3002C242.052 80.3002 241.966 80.1695 242.052 79.9734L243.546 76.2039L239.475 65.8544C239.388 65.6148 239.475 65.484 239.712 65.484H241.099C241.272 65.484 241.38 65.5712 241.445 65.7456L244.519 73.938L247.596 65.7456C247.661 65.5712 247.792 65.484 247.964 65.484H249.329C249.566 65.484 249.674 65.6148 249.588 65.8544L243.979 80.0387C243.915 80.2131 243.783 80.3002 243.611 80.3002H242.269Z" fill="#1E2531"/>
<path d="M232.993 76.4203C231.175 76.4203 229.853 75.5923 229.073 74.263L229.031 75.8537C229.031 76.0498 228.944 76.1587 228.749 76.1587H227.494C227.298 76.1587 227.189 76.0498 227.189 75.8537V60.885C227.189 60.6889 227.298 60.58 227.494 60.58H228.858C229.053 60.58 229.16 60.6889 229.16 60.885V67.2908C229.918 66.0053 231.24 65.2209 232.993 65.2209C236.048 65.2209 238.17 67.6393 238.17 70.8204C238.17 74.0234 236.048 76.4203 232.993 76.4203ZM229.116 70.8424C229.116 73.1083 230.567 74.6117 232.648 74.6117C234.748 74.6117 236.264 73.0865 236.264 70.8204C236.264 68.5764 234.748 67.0294 232.648 67.0294C230.567 67.0294 229.116 68.5764 229.116 70.8424Z" fill="#1E2531"/>
<path d="M264.971 77.8314C263.164 77.8314 261.396 77.2921 259.892 76.2813C258.388 75.2708 257.217 73.8343 256.525 72.1537C255.833 70.4732 255.652 68.6239 256.006 66.8398C256.357 65.0555 257.229 63.4167 258.507 62.1305C259.785 60.8442 261.414 59.9682 263.188 59.6134C264.962 59.2585 266.799 59.4405 268.469 60.1368C270.14 60.8329 271.568 62.0116 272.573 63.5242C273.578 65.0367 274.114 66.8149 274.114 68.6341C274.109 71.0721 273.145 73.4091 271.431 75.133C269.718 76.8569 267.395 77.8273 264.971 77.8314ZM264.971 60.1782C263.309 60.1782 261.683 60.6741 260.302 61.6033C258.919 62.5324 257.842 63.853 257.205 65.3982C256.57 66.9433 256.403 68.6435 256.727 70.2837C257.053 71.924 257.853 73.4307 259.028 74.6132C260.203 75.7959 261.701 76.6011 263.331 76.9275C264.963 77.2537 266.653 77.0862 268.187 76.4462C269.725 75.8063 271.037 74.7225 271.96 73.332C272.883 71.9413 273.377 70.3064 273.377 68.6341C273.377 67.5236 273.159 66.4239 272.738 65.3982C272.314 64.3723 271.695 63.4401 270.914 62.6548C270.134 61.8696 269.208 61.2468 268.187 60.8219C267.167 60.3969 266.075 60.1782 264.971 60.1782Z" fill="#1E2531"/>
<path fill-rule="evenodd" clip-rule="evenodd" d="M271.668 73.1458C272.554 71.8109 273.027 70.2414 273.027 68.6358C273.027 66.4832 272.176 64.4188 270.664 62.8967C269.15 61.3744 267.098 60.5189 264.958 60.5182C263.362 60.5182 261.803 60.9944 260.476 61.8864C259.148 62.7783 258.114 64.0461 257.503 65.5294C256.893 67.0127 256.734 68.6449 257.045 70.2196C257.355 71.7941 258.125 73.2407 259.252 74.3759C260.381 75.5112 261.819 76.2844 263.385 76.5976C264.949 76.9107 266.572 76.75 268.045 76.1357C269.521 75.5212 270.781 74.4808 271.668 73.1458ZM259.191 65.3306H270.752V68.9601H267.533L262.541 73.3832V68.9601H259.191V65.3306Z" fill="#1E2531"/>
<path d="M285.598 75.9306C285.704 76.0333 285.786 76.1568 285.842 76.2934C285.898 76.4299 285.924 76.5766 285.921 76.7243V76.7502C285.92 77.043 285.803 77.3233 285.598 77.5307C285.5 77.6384 285.38 77.7238 285.247 77.7822C285.112 77.8404 284.967 77.8699 284.823 77.869H283.853C283.398 77.8743 282.947 77.7872 282.527 77.6129C282.107 77.4386 281.726 77.1805 281.409 76.8543C281.082 76.5373 280.827 76.1568 280.653 75.7362C280.48 75.3157 280.394 74.8639 280.4 74.4086V66.8244H279.158C278.867 66.8226 278.589 66.7058 278.383 66.4991C278.278 66.399 278.195 66.2778 278.138 66.1434C278.084 66.0089 278.056 65.8642 278.059 65.7186V65.6925C278.061 65.3958 278.176 65.1113 278.383 64.8989C278.481 64.7915 278.601 64.7059 278.734 64.6476C278.868 64.5894 279.014 64.5598 279.158 64.5608H280.4V60.671C280.402 60.3743 280.517 60.0899 280.723 59.8775C280.823 59.7736 280.945 59.6919 281.079 59.6381C281.213 59.5844 281.355 59.5595 281.499 59.5653H281.538C281.828 59.5622 282.106 59.6743 282.313 59.8775C282.418 59.9809 282.501 60.1046 282.556 60.2409C282.611 60.3774 282.64 60.5236 282.637 60.671V64.5086H282.727V64.5478H284.823C284.967 64.5479 285.112 64.5782 285.246 64.6364C285.378 64.6945 285.499 64.7795 285.598 64.886C285.702 64.9894 285.785 65.113 285.841 65.2494C285.896 65.3858 285.924 65.532 285.921 65.6795V65.7055C285.92 65.9984 285.803 66.2787 285.598 66.486C285.499 66.5919 285.378 66.6756 285.244 66.7315C285.112 66.7876 284.966 66.8147 284.823 66.8113H282.727V66.8634H282.637V74.3827C282.634 74.5402 282.663 74.6966 282.724 74.8422C282.783 74.9878 282.873 75.1193 282.985 75.2281C283.096 75.344 283.229 75.4361 283.375 75.4988C283.523 75.5613 283.68 75.5932 283.838 75.5925H284.809C285.104 75.6072 285.383 75.7272 285.598 75.9306Z" fill="#1E2531"/>
<path d="M291.803 65.78C291.005 65.7756 290.214 65.9305 289.477 66.2356C288.74 66.5406 288.069 66.9898 287.504 67.5574C286.941 68.1247 286.495 68.7991 286.191 69.5413C285.886 70.2835 285.734 71.0788 285.737 71.8812C285.737 75.2765 288.427 77.8133 291.803 77.8133C293.173 77.8133 294.324 77.4881 295.358 76.6034C295.358 77.2929 296.031 77.8133 296.509 77.8133C296.668 77.8188 296.828 77.7912 296.976 77.7323C297.124 77.6734 297.259 77.5845 297.373 77.4711C297.484 77.3577 297.573 77.2221 297.631 77.0728C297.69 76.9235 297.718 76.7639 297.712 76.6034V71.8682C297.699 68.4859 295.177 65.78 291.803 65.78ZM291.803 75.4457C289.785 75.4457 288.078 73.9106 288.078 71.8682C288.091 70.8788 288.489 69.9336 289.183 69.2338C289.879 68.5341 290.819 68.135 291.803 68.1216C293.82 68.1216 295.358 69.8518 295.358 71.8812C295.358 73.9106 293.82 75.4457 291.803 75.4457Z" fill="#1E2531"/>
<path d="M305.636 65.7799C304.038 65.7799 302.506 66.4186 301.376 67.5555C300.246 68.6925 299.611 70.2343 299.611 71.8422C299.611 73.45 300.246 74.992 301.376 76.1287C302.506 77.2657 304.038 77.9044 305.636 77.9044C306.953 77.8863 308.23 77.4492 309.282 76.6556V77.9824C309.266 78.8078 308.974 79.6036 308.454 80.2416C307.933 80.8797 307.214 81.323 306.411 81.5001C305.61 81.6773 304.772 81.5781 304.035 81.2186C303.295 80.8589 302.699 80.2598 302.339 79.5175C302.195 79.2386 301.947 79.027 301.652 78.9275C301.354 78.8279 301.03 78.8484 300.749 78.9841C300.607 79.0507 300.479 79.1455 300.373 79.2627C300.268 79.3798 300.186 79.5169 300.134 79.6661C300.084 79.8153 300.062 79.9734 300.07 80.131C300.081 80.2887 300.123 80.4428 300.192 80.5844C300.686 81.6091 301.459 82.4721 302.42 83.073C303.38 83.6739 304.492 83.9884 305.624 83.9797C307.219 83.9735 308.75 83.3327 309.879 82.1972C311.006 81.0616 311.643 79.5233 311.649 77.9174V71.8551C311.636 68.4989 308.934 65.7799 305.636 65.7799ZM305.636 75.4977C304.915 75.4977 304.21 75.2826 303.61 74.8794C303.01 74.4764 302.543 73.9034 302.268 73.2331C301.991 72.5627 301.919 71.8251 302.06 71.1134C302.201 70.4018 302.549 69.7481 303.057 69.2351C303.567 68.722 304.217 68.3727 304.925 68.2311C305.632 68.0896 306.366 68.1622 307.032 68.4398C307.698 68.7175 308.268 69.1877 308.668 69.7911C309.069 70.3943 309.282 71.1036 309.282 71.8291C309.28 72.801 308.894 73.7322 308.211 74.4193C307.528 75.1066 306.603 75.4943 305.636 75.4977Z" fill="#1E2531"/>
<path d="M319.91 65.7799C318.312 65.7799 316.78 66.4186 315.65 67.5555C314.52 68.6925 313.885 70.2343 313.885 71.8422C313.885 73.45 314.52 74.992 315.65 76.1287C316.78 77.2657 318.312 77.9044 319.91 77.9044C321.227 77.8863 322.504 77.4492 323.556 76.6556V77.9824C323.539 78.8078 323.248 79.6036 322.728 80.2416C322.207 80.8797 321.487 81.323 320.685 81.5001C319.884 81.6773 319.046 81.5781 318.309 81.2186C317.569 80.8589 316.973 80.2598 316.613 79.5175C316.469 79.2386 316.221 79.027 315.925 78.9275C315.628 78.8279 315.304 78.8484 315.023 78.9841C314.88 79.0507 314.753 79.1455 314.647 79.2627C314.542 79.3798 314.46 79.5169 314.408 79.6661C314.357 79.8153 314.336 79.9734 314.344 80.131C314.355 80.2887 314.396 80.4428 314.466 80.5844C314.96 81.6091 315.733 82.4721 316.693 83.073C317.654 83.6739 318.766 83.9884 319.898 83.9797C321.493 83.9735 323.023 83.3327 324.152 82.1972C325.28 81.0616 325.917 79.5233 325.923 77.9174V71.8551C325.91 68.4989 323.208 65.7799 319.91 65.7799ZM319.91 75.4977C319.189 75.4977 318.484 75.2826 317.884 74.8794C317.284 74.4764 316.817 73.9034 316.542 73.2331C316.265 72.5627 316.193 71.8251 316.334 71.1134C316.475 70.4018 316.822 69.7481 317.331 69.2351C317.841 68.722 318.491 68.3727 319.199 68.2311C319.906 68.0896 320.64 68.1622 321.306 68.4398C321.971 68.7175 322.542 69.1877 322.942 69.7911C323.343 70.3943 323.556 71.1036 323.556 71.8291C323.554 72.801 323.168 73.7322 322.485 74.4193C321.802 75.1066 320.877 75.4943 319.91 75.4977Z" fill="#1E2531"/>
<path d="M334.099 65.6514C332.785 65.65 331.505 66.0792 330.455 66.8741V60.864C330.455 60.5466 330.329 60.2422 330.105 60.0177C329.883 59.7933 329.58 59.6672 329.264 59.6672C328.948 59.6672 328.646 59.7933 328.423 60.0177C328.2 60.2422 328.075 60.5466 328.075 60.864V71.7006C328.075 75.0048 330.778 77.7628 334.088 77.7628C334.879 77.7631 335.663 77.6066 336.393 77.302C337.125 76.9974 337.789 76.551 338.35 75.988C338.908 75.425 339.353 74.7565 339.656 74.0208C339.957 73.2852 340.113 72.4967 340.113 71.7006C340.121 70.9042 339.97 70.1145 339.67 69.3773C339.37 68.6404 338.927 67.9708 338.369 67.4076C337.808 66.8446 337.142 66.3993 336.409 66.0977C335.677 65.7962 334.892 65.6444 334.099 65.6514ZM334.099 75.3691C333.38 75.3691 332.675 75.154 332.075 74.7509C331.475 74.3478 331.007 73.7747 330.731 73.1045C330.456 72.4341 330.384 71.6965 330.523 70.9848C330.665 70.2732 331.013 69.6196 331.522 69.1065C332.032 68.5935 332.682 68.2439 333.389 68.1025C334.097 67.9609 334.831 68.0336 335.496 68.3113C336.162 68.5888 336.732 69.0591 337.132 69.6625C337.532 70.2657 337.747 70.9749 337.747 71.7006C337.748 72.1825 337.653 72.6597 337.47 73.1052C337.289 73.5503 337.019 73.955 336.68 74.2958C336.342 74.6366 335.94 74.9067 335.497 75.0909C335.054 75.2751 334.579 75.3696 334.099 75.3691Z" fill="#1E2531"/>
<path d="M347.691 65.6936C346.499 65.6936 345.334 66.0491 344.344 66.7152C343.352 67.3814 342.581 68.3283 342.124 69.436C341.667 70.5437 341.548 71.7625 341.781 72.9386C342.013 74.1145 342.588 75.1948 343.43 76.0424C344.273 76.8903 345.346 77.4676 346.515 77.7016C347.685 77.9355 348.896 77.8155 349.996 77.3566C351.098 76.8978 352.038 76.1208 352.701 75.1238C353.364 74.127 353.717 72.9549 353.717 71.7559C353.714 70.1486 353.08 68.6077 351.95 67.4711C350.82 66.3347 349.289 65.6954 347.691 65.6936ZM347.691 75.4114C346.97 75.4114 346.265 75.1963 345.666 74.7931C345.066 74.3901 344.597 73.8171 344.321 73.1468C344.046 72.4764 343.974 71.7388 344.114 71.0271C344.255 70.3155 344.602 69.6618 345.112 69.1488C345.622 68.6357 346.272 68.2864 346.979 68.1448C347.687 68.0033 348.42 68.0759 349.086 68.3535C349.753 68.6312 350.322 69.1014 350.724 69.7048C351.124 70.308 351.338 71.0173 351.338 71.7428C351.333 72.7147 350.949 73.6459 350.266 74.333C349.582 75.0203 348.657 75.408 347.691 75.4114Z" fill="#1E2531"/>
<path d="M361.278 71.7558L364.446 67.619C364.542 67.4935 364.613 67.3502 364.654 67.1972C364.694 67.0442 364.705 66.8847 364.685 66.7275C364.665 66.5704 364.613 66.419 364.534 66.2818C364.456 66.1445 364.352 66.0243 364.227 65.9279C364.105 65.83 363.966 65.7577 363.816 65.7157C363.667 65.6736 363.511 65.6627 363.358 65.6834C363.203 65.7041 363.056 65.756 362.924 65.8361C362.79 65.916 362.675 66.0226 362.584 66.149L359.777 69.7915L356.971 66.149C356.879 66.0232 356.762 65.9175 356.628 65.8381C356.493 65.7586 356.344 65.707 356.19 65.6865C356.036 65.6658 355.879 65.6765 355.73 65.718C355.58 65.7594 355.439 65.8308 355.317 65.9279C355.191 66.0241 355.086 66.1444 355.007 66.2815C354.93 66.4188 354.878 66.5704 354.857 66.7274C354.838 66.8847 354.847 67.0443 354.889 67.1973C354.93 67.3503 355.001 67.4936 355.097 67.619L358.265 71.7558L355.097 75.8927C355.001 76.0157 354.93 76.157 354.889 76.308C354.847 76.459 354.836 76.6169 354.857 76.772C354.877 76.9274 354.929 77.0769 355.007 77.2119C355.086 77.3468 355.191 77.4645 355.317 77.5579C355.438 77.6564 355.576 77.7295 355.725 77.7731C355.875 77.8166 356.03 77.8296 356.186 77.8114C356.339 77.7932 356.488 77.7441 356.625 77.6671C356.759 77.5901 356.878 77.4867 356.971 77.3629L359.777 73.7203L362.584 77.3629C362.695 77.5036 362.837 77.6177 362.998 77.6964C363.158 77.7752 363.336 77.8169 363.516 77.8182C363.775 77.817 364.026 77.7251 364.227 77.5579C364.352 77.4645 364.456 77.3468 364.534 77.2119C364.614 77.0769 364.666 76.9274 364.686 76.772C364.706 76.6169 364.697 76.459 364.654 76.308C364.613 76.157 364.543 76.0157 364.446 75.8927L361.278 71.7558Z" fill="#1E2531"/>
</g>
<defs>
<clipPath id="clip0_239_3246">
<rect width="366" height="83.2965" fill="white"/>
</clipPath>
</defs>
</svg>
