<svg xmlns="http://www.w3.org/2000/svg" xmlns:xlink="http://www.w3.org/1999/xlink" width="183.831" height="30.716" viewBox="0 0 183.831 30.716">
  <defs>
    <clipPath id="clip-path">
      <path id="Path_5101" data-name="Path 5101" d="M900.879,569.317l-2.026,8.605,7.711.013,1.842-7.536Z" transform="translate(-898.854 -569.317)" fill="none"/>
    </clipPath>
  </defs>
  <g id="Group_3826" data-name="Group 3826" transform="translate(-211 -31)">
    <g id="Group_3576" data-name="Group 3576" transform="translate(211 31)">
      <path id="Path_5098" data-name="Path 5098" d="M856.789,536.28c.879-4.167,1.737-8.218,2.585-12.271a12.107,12.107,0,0,0,.292-1.811,3.456,3.456,0,0,0-2.872-3.629,3.365,3.365,0,0,0-3.926,2.578c-1.287,5.912-2.552,11.83-3.739,17.763-.476,2.378,1.182,4.154,3.805,4.228,5.437.154,10.874.3,16.312.375a7.472,7.472,0,0,0,3.12-.529,3.244,3.244,0,0,0,1.563-3.694,3.456,3.456,0,0,0-3.394-2.654c-3.528-.109-7.057-.175-10.586-.263C858.915,536.348,857.88,536.312,856.789,536.28Z" transform="translate(-849.048 -518.517)" fill="#00e9ff"/>
      <path id="Path_5099" data-name="Path 5099" d="M873.941,539.231c-4.259,0-8.4,0-12.54-.015a12.113,12.113,0,0,1-1.832-.09,3.455,3.455,0,0,1-2.956-3.562,3.365,3.365,0,0,1,3.336-3.306c6.05-.033,12.1-.044,18.152.024,2.425.027,3.819,2.017,3.347,4.6-.977,5.35-1.96,10.7-3.014,16.035a7.473,7.473,0,0,1-1.165,2.942,3.243,3.243,0,0,1-3.938.764,3.456,3.456,0,0,1-1.893-3.87c.625-3.474,1.291-6.94,1.937-10.41C873.567,541.325,873.747,540.305,873.941,539.231Z" transform="translate(-854.088 -527.658)" fill="#4179ff"/>
      <g id="Group_3575" data-name="Group 3575" transform="translate(16.61 16.942)">
        <g id="Group_3574" data-name="Group 3574" clip-path="url(#clip-path)">
          <path id="Path_5100" data-name="Path 5100" d="M856.789,536.28c.879-4.167,1.737-8.218,2.585-12.271a12.107,12.107,0,0,0,.292-1.811,3.456,3.456,0,0,0-2.872-3.629,3.365,3.365,0,0,0-3.926,2.578c-1.287,5.912-2.552,11.83-3.739,17.763-.476,2.378,1.182,4.154,3.805,4.228,5.437.154,10.874.3,16.312.375a7.472,7.472,0,0,0,3.12-.529,3.244,3.244,0,0,0,1.563-3.694,3.456,3.456,0,0,0-3.394-2.654c-3.528-.109-7.057-.175-10.586-.263C858.915,536.348,857.88,536.312,856.789,536.28Z" transform="translate(-865.658 -535.458)" fill="#00e9ff"/>
        </g>
      </g>
    </g>
    <g id="Group_3577" data-name="Group 3577" transform="translate(244.09 31)">
      <path id="Path_5102" data-name="Path 5102" d="M950.475,536.183h-2.2v-3.372h2.3V528.17h4.14v4.641h3.873v3.372h-3.873v6.878c0,2.8,2.2,3.206,3.372,3.206a3.9,3.9,0,0,0,.768-.067v3.706a7.785,7.785,0,0,1-1.3.1c-2.371,0-7.078-.7-7.078-6.41Z" transform="translate(-948.271 -526.134)" fill="#1e2531"/>
      <path id="Path_5103" data-name="Path 5103" d="M992.526,547.629h.534V547.5c0-2.437-.968-3.339-3.138-3.339-.768,0-2.271.2-2.271,1.136v.9h-3.94v-1.8c0-3.171,4.474-3.505,6.244-3.505,5.676,0,7.345,2.971,7.345,6.778v6.343a.668.668,0,0,0,.734.735h1.335v3.573h-3.806c-1.569,0-2.17-.868-2.17-1.87,0-.434.033-.734.033-.734h-.067a5.543,5.543,0,0,1-5.141,3c-3.038,0-5.81-1.9-5.81-5.309C982.41,548.063,989.755,547.629,992.526,547.629Zm-3.272,7.779c2.27,0,3.873-2.4,3.873-4.473v-.4h-.735c-2.2,0-5.709.3-5.709,2.671A2.271,2.271,0,0,0,989.255,555.408Z" transform="translate(-971.025 -534.608)" fill="#1e2531"/>
      <path id="Path_5104" data-name="Path 5104" d="M1041.914,540.885c3.94,0,5.242,2.4,5.242,2.4h.067v-.435c0-.768.534-1.569,1.87-1.569h3.939v3.606h-1.3a.651.651,0,0,0-.734.668v11.719c0,5.843-4.541,8.046-8.981,8.046a13.578,13.578,0,0,1-6.043-1.469l1.3-3.339a10.992,10.992,0,0,0,4.708,1.135c2.571,0,4.808-1.1,4.808-4.174v-.8c0-.4.034-.9.034-.9h-.067a5.279,5.279,0,0,1-4.741,2.2c-4.875,0-7.646-3.939-7.646-8.614S1037.006,540.885,1041.914,540.885Zm4.975,8.514c0-3.873-1.937-4.908-4.24-4.908-2.57,0-3.973,1.87-3.973,4.741,0,2.971,1.5,5.175,4.241,5.175C1044.952,554.407,1046.889,553.239,1046.889,549.4Z" transform="translate(-1005.656 -534.608)" fill="#1e2531"/>
      <path id="Path_5105" data-name="Path 5105" d="M1100.28,540.885c4.874,0,7.545,3.573,7.545,8.08,0,.5-.1,1.569-.1,1.569h-11.752a4.9,4.9,0,0,0,5.108,4.574,7.738,7.738,0,0,0,4.775-1.9l1.769,2.939a10.356,10.356,0,0,1-6.844,2.571,8.725,8.725,0,0,1-9.148-8.915C1091.633,544.558,1095.172,540.885,1100.28,540.885Zm3.205,6.711a3.306,3.306,0,0,0-3.205-3.439,4.08,4.08,0,0,0-4.173,3.439Z" transform="translate(-1043.823 -534.608)" fill="#1e2531"/>
      <path id="Path_5106" data-name="Path 5106" d="M1144.359,545.626a.654.654,0,0,0-.735-.735h-1.335v-3.606h3.906c1.5,0,2.237.7,2.237,1.9v.5c0,.367-.034.735-.034.735h.067a6.34,6.34,0,0,1,5.509-3.539,4.747,4.747,0,0,1,4.975,3.505h.067a6.576,6.576,0,0,1,5.81-3.505c3.539,0,5.576,2,5.576,6.477v6.644a.668.668,0,0,0,.734.735h1.3v3.573h-4.006c-1.6,0-2.271-.668-2.271-2.271v-7.88c0-1.937-.367-3.405-2.337-3.405-2.1,0-3.605,1.77-4.073,3.906a7.442,7.442,0,0,0-.267,2.17v7.479h-4.24v-10.15c0-1.836-.267-3.405-2.3-3.405-2.137,0-3.573,1.77-4.107,3.94a8.7,8.7,0,0,0-.267,2.137v7.479h-4.207Z" transform="translate(-1077.585 -534.608)" fill="#1e2531"/>
      <path id="Path_5107" data-name="Path 5107" d="M1234.36,526.4a.654.654,0,0,0-.735-.734h-1.335v-3.606h4.04c1.569,0,2.27.7,2.27,2.27v4.941c0,.835-.066,1.435-.066,1.435h.066a6.054,6.054,0,0,1,5.108-2.37c4.608,0,7.546,3.639,7.546,8.914,0,5.409-3.305,8.915-7.813,8.915a6.074,6.074,0,0,1-5.075-2.4h-.067a8.919,8.919,0,0,1,.067,1.135v.868h-4.006Zm8.347,16.193c2.3,0,4.274-1.9,4.274-5.275,0-3.238-1.736-5.342-4.24-5.342-2.2,0-4.273,1.6-4.273,5.376C1238.467,539.993,1239.869,542.6,1242.707,542.6Z" transform="translate(-1137.571 -522.064)" fill="#1e2531"/>
      <path id="Path_5108" data-name="Path 5108" d="M1300.3,540.885c4.875,0,7.546,3.573,7.546,8.08,0,.5-.1,1.569-.1,1.569H1296a4.9,4.9,0,0,0,5.108,4.574,7.741,7.741,0,0,0,4.775-1.9l1.769,2.939a10.357,10.357,0,0,1-6.844,2.571,8.725,8.725,0,0,1-9.148-8.915C1291.656,544.558,1295.2,540.885,1300.3,540.885Zm3.205,6.711a3.306,3.306,0,0,0-3.205-3.439,4.081,4.081,0,0,0-4.173,3.439Z" transform="translate(-1177.14 -534.608)" fill="#1e2531"/>
      <path id="Path_5109" data-name="Path 5109" d="M1351.158,528.341c3.706,0,4.907,2.07,4.907,2.07h.067s-.034-.434-.034-1v-3a.653.653,0,0,0-.734-.734h-1.336v-3.606h4.04c1.569,0,2.271.7,2.271,2.27v17.128a.668.668,0,0,0,.734.735h1.3v3.573h-3.906c-1.536,0-2.1-.735-2.1-1.736V543.4h-.067a5.853,5.853,0,0,1-5.309,2.772c-4.608,0-7.579-3.639-7.579-8.915C1343.412,531.846,1346.651,528.341,1351.158,528.341Zm5.041,8.881c0-2.638-1.369-5.242-4.207-5.242-2.337,0-4.274,1.9-4.274,5.275,0,3.239,1.7,5.342,4.207,5.342C1354.13,542.6,1356.2,540.994,1356.2,537.222Z" transform="translate(-1211.635 -522.064)" fill="#1e2531"/>
    </g>
  </g>
</svg>
