<svg width="20" height="20" viewBox="0 0 20 20" fill="none" xmlns="http://www.w3.org/2000/svg">
<path fill-rule="evenodd" clip-rule="evenodd" d="M19.9711 8.03484C19.9455 7.91072 19.8591 7.80735 19.7414 7.76057C18.7031 7.3467 17.6023 7.13694 16.4693 7.13694C14.7033 7.13694 13.3406 7.64173 12.8143 7.8696L7.20089 3.09372C7.39707 1.37035 6.46747 0.191753 6.42597 0.140444C6.35844 0.0570668 6.25922 0.00613523 6.15245 9.8887e-05C6.04606 -0.00216474 5.9408 0.0344306 5.86535 0.110262L0.110454 5.86516C0.0342454 5.94099 -0.00574538 6.04587 0.000668226 6.15377C0.00670457 6.26091 0.0583907 6.36089 0.142522 6.42767C0.965351 7.08035 1.96965 7.21767 2.66684 7.21767C2.82228 7.21767 2.95508 7.21051 3.05657 7.20258L7.85621 12.8443C7.52874 13.6856 6.52821 16.7189 7.74039 19.7623C7.78717 19.8804 7.89016 19.9664 8.01466 19.9921C8.03994 19.9974 8.06559 20 8.09087 20C8.19009 20 8.2863 19.9608 8.3576 19.8895L13.8544 14.3926L18.974 19.5122C19.0476 19.5858 19.1442 19.6227 19.2407 19.6227C19.3373 19.6227 19.4339 19.5858 19.5075 19.5122C19.655 19.3647 19.655 19.1262 19.5075 18.9787L14.3879 13.8592L19.8685 8.37816C19.9583 8.28837 19.9968 8.15934 19.9711 8.03484Z" fill="#204863"/>
</svg>
