<?xml version="1.0" encoding="utf-8"?>
<!-- Generator: Adobe Illustrator 24.0.1, SVG Export Plug-In . SVG Version: 6.00 Build 0)  -->
<svg version="1.1" id="Layer_1" xmlns="http://www.w3.org/2000/svg" xmlns:xlink="http://www.w3.org/1999/xlink" x="0px" y="0px"
	 width="20px" height="20px" viewBox="0 0 20 20" style="enable-background:new 0 0 20 20;" xml:space="preserve">
<style type="text/css">
	.st0{fill:#FFFFFF;}
</style>
<g>
	<g>
		<path class="st0" d="M13.7,9.4h-3.1V6.3c0-0.3-0.3-0.6-0.6-0.6S9.4,5.9,9.4,6.3v3.1H6.3C6,9.4,5.7,9.7,5.7,10s0.3,0.6,0.6,0.6h3.1
			v3.1c0,0.3,0.3,0.6,0.6,0.6s0.6-0.3,0.6-0.6v-3.1h3.1c0.3,0,0.6-0.3,0.6-0.6C14.3,9.6,14.1,9.4,13.7,9.4z M10,0.1
			c-5.5,0-9.9,4.4-9.9,9.9s4.4,9.9,9.9,9.9s9.9-4.4,9.9-9.9S15.5,0.1,10,0.1z M10,18.6c-4.8,0-8.7-3.9-8.7-8.7S5.2,1.2,10,1.2
			s8.7,3.9,8.7,8.7C18.7,14.8,14.8,18.6,10,18.6z"/>
		<path class="st0" d="M10,20C4.5,20,0,15.5,0,10S4.5,0,10,0s10,4.5,10,10S15.5,20,10,20z M10,0.2c-5.4,0-9.8,4.4-9.8,9.8
			s4.4,9.8,9.8,9.8s9.8-4.4,9.8-9.8S15.4,0.2,10,0.2z M10,18.8c-4.8,0-8.8-3.9-8.8-8.8s4-8.8,8.8-8.8s8.8,3.9,8.8,8.8
			S14.8,18.8,10,18.8z M10,1.4c-4.7,0-8.5,3.8-8.5,8.5s3.8,8.5,8.5,8.5s8.5-3.8,8.5-8.5S14.7,1.4,10,1.4z M10,14.4
			c-0.4,0-0.7-0.3-0.7-0.7v-3h-3c-0.4,0-0.7-0.3-0.7-0.7s0.3-0.7,0.7-0.7h3v-3c0-0.4,0.3-0.7,0.7-0.7s0.7,0.3,0.7,0.7v3h3
			c0.4,0,0.7,0.3,0.7,0.7s-0.3,0.7-0.7,0.7h-3v3C10.7,14.1,10.4,14.4,10,14.4z M6.3,9.5C6,9.5,5.8,9.7,5.8,10s0.2,0.5,0.5,0.5h3.2
			v3.2c0,0.3,0.2,0.5,0.5,0.5s0.5-0.2,0.5-0.5v-3.2h3.2c0.3,0,0.5-0.2,0.5-0.5S14,9.5,13.7,9.5h-3.2V6.3c0-0.3-0.2-0.5-0.5-0.5
			S9.5,6,9.5,6.3v3.2H6.3z"/>
	</g>
</g>
</svg>
