<svg xmlns="http://www.w3.org/2000/svg" xmlns:xlink="http://www.w3.org/1999/xlink" width="113.1" height="85.1" viewBox="0 0 113.1 85.1">
  <defs>
    <clipPath id="clip-Artboard_1_1">
      <rect width="113.1" height="85.1"/>
    </clipPath>
  </defs>
  <g id="Artboard_1_1" data-name="Artboard 1 – 1" clip-path="url(#clip-Artboard_1_1)">
    <rect width="113.1" height="85.1" fill="#fff"/>
    <g id="Group_1" data-name="Group 1">
      <path id="Path_1" data-name="Path 1" d="M111.1,2V83.1H2V2H111.1m2-2H0V85.1H113.1V0Z" fill="#d9ebfc"/>
    </g>
    <rect id="Rectangle_1" data-name="Rectangle 1" width="48" height="58.348" transform="translate(6.4 7)" fill="#d9ebfc"/>
    <rect id="Rectangle_2" data-name="Rectangle 2" width="41" height="30.778" transform="translate(9.8 16.7)" fill="#fff"/>
    <circle id="Ellipse_1" data-name="Ellipse 1" cx="2.8" cy="2.8" r="2.8" transform="translate(9.7 9.3)" fill="#fff"/>
    <rect id="Rectangle_3" data-name="Rectangle 3" width="33.1" height="1.4" transform="translate(17.7 9.6)" fill="#fff"/>
    <rect id="Rectangle_4" data-name="Rectangle 4" width="25.2" height="1.4" transform="translate(10 60.3)" fill="#fff"/>
    <rect id="Rectangle_5" data-name="Rectangle 5" width="40.8" height="1.4" transform="translate(10 56.3)" fill="#fff"/>
    <rect id="Rectangle_6" data-name="Rectangle 6" width="40.8" height="1.4" transform="translate(10 52.3)" fill="#fff"/>
    <rect id="Rectangle_7" data-name="Rectangle 7" width="20.9" height="1.2" transform="translate(17.9 13.1)" fill="#fff"/>
    <rect id="Rectangle_8" data-name="Rectangle 8" width="47.8" height="58.348" transform="translate(59 7)" fill="#d9ebfc"/>
    <rect id="Rectangle_9" data-name="Rectangle 9" width="40.3" height="30.778" transform="translate(62.8 16.7)" fill="#fff"/>
    <circle id="Ellipse_2" data-name="Ellipse 2" cx="2.8" cy="2.8" r="2.8" transform="translate(62.7 9.3)" fill="#fff"/>
    <rect id="Rectangle_10" data-name="Rectangle 10" width="32.4" height="1.4" transform="translate(70.7 9.6)" fill="#fff"/>
    <rect id="Rectangle_11" data-name="Rectangle 11" width="25.2" height="1.4" transform="translate(62.8 60.3)" fill="#fff"/>
    <rect id="Rectangle_12" data-name="Rectangle 12" width="40.3" height="1.4" transform="translate(62.8 56.3)" fill="#fff"/>
    <rect id="Rectangle_13" data-name="Rectangle 13" width="40.3" height="1.4" transform="translate(62.8 52.3)" fill="#fff"/>
    <rect id="Rectangle_14" data-name="Rectangle 14" width="20.5" height="1.2" transform="translate(70.9 13.1)" fill="#fff"/>
    <g id="loading-svgrepo-com" transform="translate(52.544 71.233)">
      <g id="Group_2" data-name="Group 2" transform="translate(0.617 0)">
        <circle id="Ellipse_3" data-name="Ellipse 3" cx="0.875" cy="0.875" r="0.875" transform="translate(2.867 0)" fill="#add1f3"/>
        <circle id="Ellipse_4" data-name="Ellipse 4" cx="0.525" cy="0.525" r="0.525" transform="translate(3.217 6.434)" fill="#add1f3"/>
        <circle id="Ellipse_5" data-name="Ellipse 5" cx="0.788" cy="0.788" r="0.788" transform="translate(0.803 0.978)" fill="#add1f3"/>
        <circle id="Ellipse_6" data-name="Ellipse 6" cx="0.438" cy="0.438" r="0.438" transform="translate(5.456 5.63)" fill="#add1f3"/>
        <circle id="Ellipse_7" data-name="Ellipse 7" cx="0.7" cy="0.7" r="0.7" transform="translate(0 3.217)" fill="#add1f3"/>
        <circle id="Ellipse_8" data-name="Ellipse 8" cx="0.35" cy="0.35" r="0.35" transform="translate(6.434 3.567)" fill="#add1f3"/>
        <path id="Path_2" data-name="Path 2" d="M4.241,19.385a.613.613,0,1,0,.866,0A.612.612,0,0,0,4.241,19.385Z" transform="translate(-3.083 -13.749)" fill="#add1f3"/>
        <circle id="Ellipse_9" data-name="Ellipse 9" cx="0.262" cy="0.262" r="0.262" transform="translate(5.63 1.504)" fill="#add1f3"/>
      </g>
    </g>
  </g>
</svg>
