<?xml version="1.0" encoding="utf-8"?>
<!-- Generator: Adobe Illustrator 24.2.0, SVG Export Plug-In . SVG Version: 6.00 Build 0)  -->
<svg version="1.1" id="Layer_1" xmlns="http://www.w3.org/2000/svg" xmlns:xlink="http://www.w3.org/1999/xlink" x="0px" y="0px"
	 viewBox="0 0 113.1 85.1" style="enable-background:new 0 0 113.1 85.1;" xml:space="preserve">
<style type="text/css">
	.st0{fill:#D9EBFC;}
	.st1{fill:none;}
</style>
<g>
	<path class="st0" d="M111.1,2v81.1H2V2H111.1 M113.1,0H0v85.1h113.1V0L113.1,0z"/>
</g>
<rect x="6.4" y="7" class="st1" width="48" height="71.1"/>
<rect x="9.8" y="16.7" class="st0" width="41" height="33.5"/>
<circle class="st0" cx="12.5" cy="12.1" r="2.8"/>
<rect x="17.7" y="9.6" class="st0" width="33.1" height="1.4"/>
<rect x="10" y="71.3" class="st0" width="25.2" height="1.4"/>
<rect x="10" y="66.3" class="st0" width="40.8" height="1.4"/>
<rect x="10" y="62.3" class="st0" width="40.8" height="1.4"/>
<rect x="10" y="58.3" class="st0" width="40.8" height="1.4"/>
<rect x="10" y="54.3" class="st0" width="40.8" height="1.4"/>
<rect x="17.9" y="13.1" class="st0" width="20.9" height="1.2"/>
<rect x="59" y="7" class="st1" width="47.8" height="71.1"/>
<rect x="62.8" y="16.7" class="st0" width="40.3" height="33.5"/>
<circle class="st0" cx="65.5" cy="12.1" r="2.8"/>
<rect x="70.7" y="9.6" class="st0" width="32.4" height="1.4"/>
<rect x="62.8" y="71.3" class="st0" width="25.2" height="1.4"/>
<rect x="62.8" y="66.3" class="st0" width="40.3" height="1.4"/>
<rect x="62.8" y="62.3" class="st0" width="40.3" height="1.4"/>
<rect x="62.8" y="58.3" class="st0" width="40.3" height="1.4"/>
<rect x="62.8" y="54.3" class="st0" width="40.3" height="1.4"/>
<rect x="70.9" y="13.1" class="st0" width="20.5" height="1.2"/>
</svg>
