<?xml version="1.0" encoding="utf-8"?>
<!-- Generator: Adobe Illustrator 24.2.0, SVG Export Plug-In . SVG Version: 6.00 Build 0)  -->
<svg version="1.1" id="Layer_1" xmlns="http://www.w3.org/2000/svg" xmlns:xlink="http://www.w3.org/1999/xlink" x="0px" y="0px"
	 viewBox="0 0 113.1 85.1" style="enable-background:new 0 0 113.1 85.1;" xml:space="preserve">
<style type="text/css">
	.st0{fill:#D9EBFC;}
	.st1{fill:#FFFFFF;}
	.st2{fill:none;stroke:#FFFFFF;stroke-miterlimit:10;}
</style>
<g>
	<path class="st0" d="M111.1,2v81.1H2V2H111.1 M113.1,0H0v85.1h113.1V0L113.1,0z"/>
</g>
<rect x="8.7" y="34.5" class="st0" width="29.5" height="27.1"/>
<rect x="25.6" y="20.2" class="st0" width="61.9" height="2"/>
<rect x="40.6" y="25.8" class="st0" width="31.9" height="2"/>
<g>
	<path class="st1" d="M23.4,45.4c1.5,0,2.6,1.2,2.6,2.6s-1.2,2.6-2.6,2.6s-2.6-1.2-2.6-2.6S22,45.4,23.4,45.4 M23.4,44.4
		c-2,0-3.6,1.6-3.6,3.6s1.6,3.6,3.6,3.6s3.6-1.6,3.6-3.6S25.5,44.4,23.4,44.4L23.4,44.4z"/>
</g>
<g>
	<line class="st2" x1="21.1" y1="45.7" x2="25.8" y2="50.4"/>
</g>
<rect x="42.7" y="34.5" class="st0" width="29.5" height="27.1"/>
<g>
	<path class="st1" d="M57.4,45.4c1.5,0,2.6,1.2,2.6,2.6s-1.2,2.6-2.6,2.6s-2.6-1.2-2.6-2.6S56,45.4,57.4,45.4 M57.4,44.4
		c-2,0-3.6,1.6-3.6,3.6s1.6,3.6,3.6,3.6s3.6-1.6,3.6-3.6S59.5,44.4,57.4,44.4L57.4,44.4z"/>
</g>
<g>
	<line class="st2" x1="55.1" y1="45.7" x2="59.8" y2="50.4"/>
</g>
<rect x="74.7" y="34.5" class="st0" width="29.5" height="27.1"/>
<g>
	<path class="st1" d="M89.4,45.4c1.5,0,2.6,1.2,2.6,2.6s-1.2,2.6-2.6,2.6c-1.5,0-2.6-1.2-2.6-2.6S88,45.4,89.4,45.4 M89.4,44.4
		c-2,0-3.6,1.6-3.6,3.6s1.6,3.6,3.6,3.6c2,0,3.6-1.6,3.6-3.6S91.5,44.4,89.4,44.4L89.4,44.4z"/>
</g>
<g>
	<line class="st2" x1="87.1" y1="45.7" x2="91.8" y2="50.4"/>
</g>
</svg>
